STARTFONT 2.1
FONT -FontForge-Elektora-Book-R-Normal--36-350-75-75-P-259-ISO10646-1
SIZE 35 75 75
FONTBOUNDINGBOX 57 49 1 -10
COMMENT "Generated by fontforge, http://fontforge.sourceforge.net"
COMMENT "(c) Alejandro Paul & Apostrophic Labs. All rights reserved."
STARTPROPERTIES 39
FOUNDRY "FontForge"
FAMILY_NAME "Elektora"
WEIGHT_NAME "Book"
SLANT "R"
SETWIDTH_NAME "Normal"
ADD_STYLE_NAME ""
PIXEL_SIZE 36
POINT_SIZE 350
RESOLUTION_X 75
RESOLUTION_Y 75
SPACING "P"
AVERAGE_WIDTH 259
CHARSET_REGISTRY "ISO10646"
CHARSET_ENCODING "1"
FONTNAME_REGISTRY ""
CHARSET_COLLECTIONS "ISO10646-1"
FONT_NAME "Elektora"
FACE_NAME "Elektora"
COPYRIGHT "(c) Alejandro Paul & Apostrophic Labs. All rights reserved."
FONT_VERSION "1.0; FC2000;"
FONT_ASCENT 29
FONT_DESCENT 7
UNDERLINE_POSITION -5
UNDERLINE_THICKNESS 1
X_HEIGHT 29
CAP_HEIGHT 29
RAW_ASCENT 800
RAW_DESCENT 200
NORM_SPACE 14
RELATIVE_WEIGHT 40
RELATIVE_SETWIDTH 50
SUPERSCRIPT_X 0
SUPERSCRIPT_Y 10
SUPERSCRIPT_SIZE 7
SUBSCRIPT_X 0
SUBSCRIPT_Y 10
SUBSCRIPT_SIZE 7
AVG_LOWERCASE_WIDTH 299
AVG_UPPERCASE_WIDTH 281
ENDPROPERTIES
CHARS 259
STARTCHAR breve
ENCODING 5
SWIDTH 434 0
DWIDTH 16 0
BBX 13 6 1 31
BITMAP
7038
7038
7078
FFF8
FFF8
FFF8
ENDCHAR
STARTCHAR dotaccent
ENCODING 6
SWIDTH 158 0
DWIDTH 6 0
BBX 3 3 1 31
BITMAP
60
E0
E0
ENDCHAR
STARTCHAR ring
ENCODING 8
SWIDTH 261 0
DWIDTH 9 0
BBX 7 6 1 31
BITMAP
7C
7E
FE
EE
7E
7C
ENDCHAR
STARTCHAR hungarumlaut
ENCODING 10
SWIDTH 376 0
DWIDTH 14 0
BBX 11 6 1 30
BITMAP
1CE0
3DE0
7FC0
7F80
F780
2100
ENDCHAR
STARTCHAR ogonek
ENCODING 11
SWIDTH 330 0
DWIDTH 12 0
BBX 10 13 1 -10
BITMAP
1E00
0E00
0F00
0780
3F80
7FC0
7FC0
7F80
7000
F000
FF80
FF80
7F80
ENDCHAR
STARTCHAR caron
ENCODING 12
SWIDTH 420 0
DWIDTH 15 0
BBX 13 8 1 31
BITMAP
6030
F078
F8F8
7DF0
3FE0
1FC0
0F80
0700
ENDCHAR
STARTCHAR fraction
ENCODING 25
SWIDTH 859 0
DWIDTH 31 0
BBX 28 32 1 -2
BITMAP
00000060
00000070
000000F0
000001E0
000003E0
000007C0
00000F80
00001F00
00003E00
00003C00
00007800
0000F800
0001F000
0003E000
0007C000
000F8000
000F0000
001E0000
003C0000
007C0000
00F80000
01F00000
03E00000
03C00000
07800000
0F000000
1F000000
3E000000
7C000000
F8000000
F0000000
20000000
ENDCHAR
STARTCHAR space
ENCODING 32
SWIDTH 401 0
DWIDTH 14 0
BBX 1 1 0 0
BITMAP
00
ENDCHAR
STARTCHAR exclam
ENCODING 33
SWIDTH 166 0
DWIDTH 6 0
BBX 4 30 1 0
BITMAP
F0
F0
F0
F0
F0
F0
F0
F0
F0
F0
F0
F0
F0
F0
F0
F0
F0
F0
F0
F0
F0
F0
F0
F0
F0
60
00
F0
F0
E0
ENDCHAR
STARTCHAR quotedbl
ENCODING 34
SWIDTH 267 0
DWIDTH 10 0
BBX 7 7 1 23
BITMAP
FC
FC
7C
7E
7E
36
3E
ENDCHAR
STARTCHAR numbersign
ENCODING 35
SWIDTH 907 0
DWIDTH 33 0
BBX 30 30 1 0
BITMAP
00383800
00383800
00383800
00383800
00383800
00383800
00383800
00383800
00383800
7FFFFFFC
FFFFFFFC
FFFFFFFC
00383800
00383800
00383800
00383800
00383800
7FFFFFF8
FFFFFFFC
FFFFFFFC
7FFFFFFC
00383800
00383800
00383800
00783800
00783800
00783800
00783800
00783800
00383800
ENDCHAR
STARTCHAR dollar
ENCODING 36
SWIDTH 683 0
DWIDTH 25 0
BBX 22 30 1 0
BITMAP
00F000
00F000
00F000
00F000
7FFF80
FFFFC0
FFFFC0
70F1C0
70F1C0
70F1C0
78F000
3CF000
1EF000
0FF000
07FE00
03FF80
00FFE0
00F3F0
00F0F0
00F078
E0F038
E0F03C
E0F01C
FFFFFC
FFFFFC
FFFFFC
00F000
00F000
00F000
00F000
ENDCHAR
STARTCHAR percent
ENCODING 37
SWIDTH 923 0
DWIDTH 33 0
BBX 31 30 1 0
BITMAP
07C0001C
0FF0003E
1FF0007C
1C3800F8
383801F0
383803E0
183807C0
1C780F80
1FF01F00
0FE03E00
03C07C00
0000F800
0001F000
0003E000
0007C000
000F8000
001F0000
003E0000
007C0000
00F807C0
01F01FE0
03E01FF0
07C03C70
0F803838
1F003838
3E003838
7C003870
F8001FF0
70000FE0
200007C0
ENDCHAR
STARTCHAR ampersand
ENCODING 38
SWIDTH 1040 0
DWIDTH 37 0
BBX 35 30 1 0
BITMAP
001FFE0000
00FFFF0000
01FFFF0000
07F00F0000
0FC00F0000
1F000F0000
1E000F0000
3C000F0000
38000F0000
78000F0000
70000F0000
70000F0000
F0000F0000
FFFFFF0000
FFFFFF0000
FFFFFF0000
FFFFFE0000
F00003FFE0
700003FFE0
700003FFE0
7800001C00
3800001C00
3C00001C00
1E00001C00
0F00001C00
07C0001C00
03F8001C00
01FFFFFC00
007FFFFC00
001FFFFC00
ENDCHAR
STARTCHAR quotesingle
ENCODING 39
SWIDTH 286 0
DWIDTH 10 0
BBX 8 7 1 23
BITMAP
0E
0F
1F
3E
7C
F8
70
ENDCHAR
STARTCHAR parenleft
ENCODING 40
SWIDTH 599 0
DWIDTH 22 0
BBX 19 30 1 0
BITMAP
001FE0
00FFE0
01FFE0
07F800
0FC000
0F0000
1E0000
3C0000
3C0000
780000
780000
700000
F00000
F00000
F00000
F00000
F00000
700000
700000
780000
780000
3C0000
3C0000
1E0000
0F0000
07C000
03F800
01FFE0
007FE0
000FE0
ENDCHAR
STARTCHAR parenright
ENCODING 41
SWIDTH 599 0
DWIDTH 22 0
BBX 19 30 1 0
BITMAP
FF8000
FFE000
7FF800
01FC00
003E00
001F00
000780
000780
0003C0
0001C0
0001E0
0001E0
0000E0
0000E0
0000E0
0000E0
0000E0
0000E0
0001E0
0001E0
0003C0
0003C0
000780
000F80
001F00
007E00
03FC00
FFF800
FFE000
FF0000
ENDCHAR
STARTCHAR asterisk
ENCODING 42
SWIDTH 913 0
DWIDTH 33 0
BBX 31 30 1 0
BITMAP
00038000
00038000
00038000
00038000
0E0380C0
0F0381E0
078383C0
03C38780
01E38F00
00F3BE00
007BFC00
003FF800
001FF000
FFFFFFFC
FFFFFFFE
FFFFFFFE
7FFFFFFC
003FF000
007FF800
00FBBC00
01F39E00
03E38F00
07C38780
0F8383C0
0F0381E0
060380C0
00038000
00038000
00038000
00038000
ENDCHAR
STARTCHAR plus
ENCODING 43
SWIDTH 913 0
DWIDTH 33 0
BBX 31 30 1 0
BITMAP
00038000
00038000
00038000
00038000
00038000
00038000
00038000
00038000
00038000
00038000
00038000
00038000
00038000
FFFFFFFC
FFFFFFFE
FFFFFFFE
7FFFFFFC
00038000
00038000
00038000
00038000
00038000
00038000
00038000
00038000
00038000
00038000
00038000
00038000
00038000
ENDCHAR
STARTCHAR comma
ENCODING 44
SWIDTH 253 0
DWIDTH 9 0
BBX 7 9 1 -4
BITMAP
0E
0E
0E
0E
0E
0E
FE
FE
7C
ENDCHAR
STARTCHAR hyphen
ENCODING 45
SWIDTH 538 0
DWIDTH 19 0
BBX 17 4 1 13
BITMAP
FFFF80
FFFF80
FFFF80
7FFF00
ENDCHAR
STARTCHAR period
ENCODING 46
SWIDTH 159 0
DWIDTH 6 0
BBX 3 3 1 0
BITMAP
E0
E0
E0
ENDCHAR
STARTCHAR slash
ENCODING 47
SWIDTH 704 0
DWIDTH 25 0
BBX 23 35 1 -3
BITMAP
00000C
00001E
00001E
00003C
00007C
000078
0000F0
0000F0
0001E0
0003E0
0003C0
000780
000780
000F00
001E00
001E00
003C00
007C00
007800
00F000
00F000
01E000
03E000
03C000
078000
078000
0F0000
1E0000
1E0000
3C0000
7C0000
780000
F00000
700000
200000
ENDCHAR
STARTCHAR zero
ENCODING 48
SWIDTH 912 0
DWIDTH 33 0
BBX 31 30 1 0
BITMAP
001FF000
00FFFC00
01FFFF00
07F01F80
0FC007C0
0F0001E0
1E0000F0
3C000078
3C000078
7800003C
7800003C
7000001C
F000001C
FFFFFFFC
FFFFFFFE
FFFFFFFE
FFFFFFFC
7000001C
7000001C
7000003C
78000038
3C000078
3C0000F0
1E0001F0
0F0003E0
07C00FC0
03F87F80
01FFFF00
007FFC00
000FE000
ENDCHAR
STARTCHAR one
ENCODING 49
SWIDTH 166 0
DWIDTH 6 0
BBX 4 30 1 0
BITMAP
F0
F0
F0
F0
F0
F0
F0
F0
F0
F0
F0
F0
F0
F0
F0
F0
F0
F0
F0
F0
F0
F0
F0
F0
F0
F0
F0
F0
F0
E0
ENDCHAR
STARTCHAR two
ENCODING 50
SWIDTH 916 0
DWIDTH 33 0
BBX 31 30 1 0
BITMAP
FFFFFFFE
FFFFFFFE
FFFFFFFE
0000001E
0000001C
0000001C
0000001C
0000003C
0000003C
00000078
000000F8
000001F0
000003E0
001FFFC0
01FFFF80
03FFFF00
07FFF000
0F800000
1F000000
1E000000
3C000000
38000000
7800000C
7800001E
7000001E
7000001E
7000001E
FFFFFFFE
FFFFFFFE
FFFFFFFE
ENDCHAR
STARTCHAR three
ENCODING 51
SWIDTH 912 0
DWIDTH 33 0
BBX 31 30 1 0
BITMAP
FFFFF000
FFFFFC00
FFFFFF00
F0001F80
F00007C0
F00001E0
F00000F0
00000078
00000078
0000003C
0000003C
0000001C
0000001C
FFFFFFFE
FFFFFFFE
FFFFFFFE
7FFFFFFC
0000001C
0000001C
0000003C
00000038
00000078
000000F8
000001F0
000003E0
00000FC0
00007F80
FFFFFF00
FFFFFC00
FFFFE000
ENDCHAR
STARTCHAR four
ENCODING 52
SWIDTH 910 0
DWIDTH 33 0
BBX 30 30 1 0
BITMAP
F0000380
F0000380
F0000380
F0000380
70000380
70000380
78000380
38000380
3C000780
1E000780
1F000780
0F800780
07E00780
03FFFFFC
00FFFFFC
003FFFFC
0001FFFC
00000780
00000780
00000780
00000780
00000780
00000780
00000780
00000780
00000780
00000780
00000780
00000780
00000380
ENDCHAR
STARTCHAR five
ENCODING 53
SWIDTH 914 0
DWIDTH 33 0
BBX 31 30 1 0
BITMAP
FFFFFFFE
FFFFFFFE
FFFFFFFC
70000000
70000000
70000000
78000000
78000000
38000000
3C000000
1E000000
1F000000
0F800000
07FFF800
03FFFF00
00FFFF80
000FFFC0
000003E0
000000F0
00000078
00000078
00000038
6000003C
F000001C
F000001C
F000001C
F000001C
FFFFFFFE
FFFFFFFE
FFFFFFFC
ENDCHAR
STARTCHAR six
ENCODING 54
SWIDTH 912 0
DWIDTH 33 0
BBX 31 30 1 0
BITMAP
001FFFFE
00FFFFFE
01FFFFFE
07F0001E
0FC0001E
0F00001E
1E00001E
3C000000
3C000000
78000000
70000000
70000000
F0000000
FFFFFFFC
FFFFFFFC
FFFFFFFC
FFFFFFFC
F000001C
7000001C
7000001C
7800001C
3C00001C
3C00001C
1E00001C
0F00001C
07C0001C
03F8001C
01FFFFFC
007FFFFC
000FFFFC
ENDCHAR
STARTCHAR seven
ENCODING 55
SWIDTH 912 0
DWIDTH 33 0
BBX 31 30 1 0
BITMAP
FFFFFF80
FFFFFF80
FFFFFF80
00000380
00000380
00000380
00000380
00000380
00000380
00000380
00000380
00000380
00000380
0001FFFC
0003FFFE
0003FFFE
0001FFFC
00000780
00000780
00000780
00000780
00000780
00000780
00000780
00000780
00000780
00000780
00001FE0
00001FE0
00001FE0
ENDCHAR
STARTCHAR eight
ENCODING 56
SWIDTH 916 0
DWIDTH 33 0
BBX 31 30 1 0
BITMAP
FFFFFFFE
FFFFFFFE
FFFFFFFE
7000001E
7000001C
7000001C
7800003C
38000038
3C000078
1E0000F0
1F0001F0
0F8003E0
07E00FC0
03FFFF80
00FFFE00
01FFFE00
03FFFF80
07E00FC0
0F8003E0
1F0001F0
3E0000F0
3C000078
78000038
7800003C
7000001C
7000001C
F000001C
FFFFFFFE
FFFFFFFE
FFFFFFFC
ENDCHAR
STARTCHAR nine
ENCODING 57
SWIDTH 911 0
DWIDTH 33 0
BBX 31 30 1 0
BITMAP
FFFFF000
FFFFFC00
FFFFFF00
F0001F80
F00007C0
F00001E0
F00000F0
F0000078
F0000078
F000003C
F000003C
F000001C
F000001C
FFFFFFFC
FFFFFFFE
FFFFFFFE
7FFFFFFC
0000001C
0000001C
0000003C
00000038
00000078
600000F0
F00001F0
F00003E0
F00007C0
F0007F80
FFFFFF00
FFFFFC00
FFFFE000
ENDCHAR
STARTCHAR colon
ENCODING 58
SWIDTH 158 0
DWIDTH 6 0
BBX 3 14 1 0
BITMAP
E0
E0
60
00
00
00
00
00
00
00
00
E0
E0
60
ENDCHAR
STARTCHAR semicolon
ENCODING 59
SWIDTH 255 0
DWIDTH 9 0
BBX 7 14 1 -4
BITMAP
0E
0E
04
00
00
0E
0E
0E
0E
0E
0E
FE
FE
7C
ENDCHAR
STARTCHAR less
ENCODING 60
SWIDTH 448 0
DWIDTH 16 0
BBX 14 23 1 4
BITMAP
0010
0038
007C
00F8
01F0
03E0
07C0
0F80
1F00
3E00
7C00
F800
7800
3C00
1E00
0F00
0780
03C0
01E0
01F0
00F8
0038
0018
ENDCHAR
STARTCHAR equal
ENCODING 61
SWIDTH 816 0
DWIDTH 29 0
BBX 27 10 1 10
BITMAP
FFFFFFE0
FFFFFFE0
7FFFFFE0
00000000
00000000
00000000
00000000
FFFFFFE0
FFFFFFE0
FFFFFFE0
ENDCHAR
STARTCHAR greater
ENCODING 62
SWIDTH 446 0
DWIDTH 16 0
BBX 14 23 1 4
BITMAP
2000
7000
F800
7C00
3E00
1F00
0F80
07C0
03E0
01F0
00F8
007C
007C
00F8
01F0
03E0
07C0
0F80
1F00
3E00
7C00
F800
7000
ENDCHAR
STARTCHAR question
ENCODING 63
SWIDTH 910 0
DWIDTH 33 0
BBX 30 30 1 0
BITMAP
FFFFF000
FFFFFC00
FFFFFF00
F0003F80
F00007C0
F00001E0
F00000F0
00000078
00000078
0000003C
0000003C
0000001C
0000001C
001FFFFC
001FFFFC
001FFFFC
001FFFFC
001C0000
001C0000
001C0000
001C0000
001C0000
001C0000
001C0000
001C0000
001C0000
00000000
001C0000
001C0000
001C0000
ENDCHAR
STARTCHAR at
ENCODING 64
SWIDTH 912 0
DWIDTH 33 0
BBX 31 30 1 0
BITMAP
001FFFFE
00FFFFFE
01FFFFFE
07F0001E
0FC0001E
0F00001E
1E00001E
3C3FFF9E
3C3FFF9E
783FFF9E
703C039E
703C039E
F03C039E
F03C039E
F038039E
F038079E
F038079E
F038079E
703FFFFE
703FFFFE
783FFFFC
3C1FFFFC
3C00000C
1E00001E
0F00001E
07C0001E
03F8001E
01FFFFFE
007FFFFC
000FFFFC
ENDCHAR
STARTCHAR A
ENCODING 65
SWIDTH 866 0
DWIDTH 31 0
BBX 29 30 1 0
BITMAP
0001FFF8
0001FFF8
0003FFF8
0007C038
00078038
000F0038
000F0038
001E0038
001E0038
003E0038
003F0038
007FC038
007BF038
00F0FC38
00F07F38
01E01FF8
01E007F8
03C001F8
03C00078
07800038
07000038
0F000038
0E000038
1E000038
3C000038
3C000038
78000038
78000038
F0000038
F0000038
ENDCHAR
STARTCHAR B
ENCODING 66
SWIDTH 756 0
DWIDTH 27 0
BBX 25 30 1 0
BITMAP
FFFFFF80
FFFFFF80
FFFFFF80
F0000780
F0000780
F0000700
F0000F00
F0000F00
F0001E00
F0001E00
F0003C00
F000F800
F003F000
FFFFFF80
FFFFFF80
FFFFFF80
FFFFFF80
F0000380
F0000380
F0000380
F0000380
F0000380
F0000380
F0000380
F0000380
F0000380
F0000380
FFFFFF80
FFFFFF80
FFFFFF80
ENDCHAR
STARTCHAR C
ENCODING 67
SWIDTH 765 0
DWIDTH 28 0
BBX 25 30 1 0
BITMAP
FFFFFF80
FFFFFF80
FFFFFF80
F0000000
F0000000
F0000000
F0000000
F0000000
F0000000
F0000000
F0000000
F0000000
F0000000
F0000000
F0000000
F0000000
F0000000
F0000000
F0000000
F0000000
F0000000
F0000000
F0000000
F0000000
F0000000
F0000000
F0000000
FFFFFF80
FFFFFF80
7FFFFF80
ENDCHAR
STARTCHAR D
ENCODING 68
SWIDTH 756 0
DWIDTH 27 0
BBX 25 30 1 0
BITMAP
FFFC0000
FFFF8000
FFFFC000
F007F000
F000F800
F0007C00
F0003C00
F0001E00
F0000F00
F0000F00
F0000700
F0000780
F0000780
F0000380
F0000380
F0000380
F0000380
F0000780
F0000780
F0000700
F0000F00
F0000E00
F0001E00
F0003C00
F0007800
F001F800
F00FF000
FFFFC000
FFFF0000
FFFC0000
ENDCHAR
STARTCHAR E
ENCODING 69
SWIDTH 762 0
DWIDTH 27 0
BBX 25 30 1 0
BITMAP
FFFFFF80
FFFFFF80
FFFFFF80
F0000000
F0000000
F0000000
F0000000
F0000000
F0000000
F0000000
F0000000
F0000000
F0000000
FFFFC000
FFFFC000
FFFFC000
FFFF8000
F0000000
F0000000
F0000000
F0000000
F0000000
F0000000
F0000000
F0000000
F0000000
F0000000
FFFFFF80
FFFFFF80
7FFFFF80
ENDCHAR
STARTCHAR F
ENCODING 70
SWIDTH 759 0
DWIDTH 27 0
BBX 25 30 1 0
BITMAP
FFFFFF80
FFFFFF80
FFFFFF80
F0000000
F0000000
F0000000
F0000000
F0000000
F0000000
F0000000
F0000000
F0000000
F0000000
FFFFC000
FFFFC000
FFFFC000
FFFF8000
F0000000
F0000000
F0000000
F0000000
F0000000
F0000000
F0000000
F0000000
F0000000
F0000000
F0000000
F0000000
F0000000
ENDCHAR
STARTCHAR G
ENCODING 71
SWIDTH 833 0
DWIDTH 30 0
BBX 28 30 1 0
BITMAP
001FFFF0
00FFFFF0
01FFFFE0
07F00000
0FC00000
1F000000
1E000000
3C000000
3C000000
78000000
78000000
70000000
F0000000
F001FFF0
F003FFF0
F003FFF0
F001FFF0
F00000F0
700000F0
700000F0
780000F0
380000F0
3C0000F0
1E0001F0
0F0003F0
07C00FF0
03F87FF0
01FFFFF0
007FFCF0
000FE0F0
ENDCHAR
STARTCHAR H
ENCODING 72
SWIDTH 651 0
DWIDTH 23 0
BBX 21 30 1 0
BITMAP
F00038
F00038
F00038
F00038
F00038
F00038
F00038
F00038
F00038
F00038
F00038
F00038
F00038
FFFFF8
FFFFF8
FFFFF8
FFFFF8
F00038
F00038
F00038
F00038
F00038
F00038
F00038
F00038
F00038
F00038
F00038
F00038
700038
ENDCHAR
STARTCHAR I
ENCODING 73
SWIDTH 164 0
DWIDTH 6 0
BBX 4 30 1 0
BITMAP
F0
F0
F0
F0
F0
F0
F0
F0
F0
F0
F0
F0
F0
F0
F0
F0
F0
F0
F0
F0
F0
F0
F0
F0
F0
F0
F0
F0
F0
E0
ENDCHAR
STARTCHAR J
ENCODING 74
SWIDTH 569 0
DWIDTH 20 0
BBX 18 30 1 0
BITMAP
0001C0
0001C0
0001C0
0001C0
0001C0
0001C0
0001C0
0001C0
0001C0
0001C0
0001C0
0001C0
0001C0
0001C0
0001C0
0001C0
0001C0
0001C0
0001C0
0001C0
0001C0
0001C0
0001C0
0001C0
0001C0
0001C0
0001C0
FFFFC0
FFFFC0
FFFFC0
ENDCHAR
STARTCHAR K
ENCODING 75
SWIDTH 759 0
DWIDTH 27 0
BBX 25 30 1 0
BITMAP
F0000380
F0000380
F0000380
F0000380
F0000780
F0000780
F0000700
F0000F00
F0001E00
F0001E00
F0003C00
F000F800
F003F000
FFFFE000
FFFFC000
FFFF0000
FFFE0000
F00E0000
F00F0000
F0078000
F003C000
F001C000
F001E000
F000F000
F0007800
F0007800
F0003C00
F0001E00
F0000E00
F0000F00
ENDCHAR
STARTCHAR L
ENCODING 76
SWIDTH 760 0
DWIDTH 27 0
BBX 25 30 1 0
BITMAP
F0000000
F0000000
F0000000
F0000000
F0000000
F0000000
F0000000
F0000000
F0000000
F0000000
F0000000
F0000000
F0000000
F0000000
F0000000
F0000000
F0000000
F0000000
F0000000
F0000000
F0000000
F0000000
F0000000
F0000000
F0000000
F0000000
F0000000
FFFFFF80
FFFFFF80
7FFFFF80
ENDCHAR
STARTCHAR M
ENCODING 77
SWIDTH 908 0
DWIDTH 33 0
BBX 30 30 1 0
BITMAP
FE0001FC
FFFFFFFC
FFFFFFFC
F7FFFFFC
F007C01C
F003801C
F003801C
F003801C
F003801C
F003801C
F003801C
F003801C
F003801C
F003801C
F003801C
F003801C
F003801C
F003801C
F003801C
F003801C
F003801C
F003801C
F003801C
F003801C
F003801C
F003801C
F003801C
F003801C
F003801C
F003801C
ENDCHAR
STARTCHAR N
ENCODING 78
SWIDTH 830 0
DWIDTH 30 0
BBX 28 30 1 0
BITMAP
F00000F0
FC0000F0
FF0000F0
FF8000F0
F7E000F0
F1F800F0
F0FC00F0
F03F00F0
F00FC0F0
F007E0F0
F001F8F0
F0007EF0
F0001FF0
F0000FF0
F00003F0
F00000F0
F00000F0
F00000F0
F00000F0
F00000F0
F00000F0
F00000F0
F00000F0
F00000F0
F00000F0
F00000F0
F00000F0
F00000F0
F00000F0
E00000E0
ENDCHAR
STARTCHAR O
ENCODING 79
SWIDTH 912 0
DWIDTH 33 0
BBX 31 30 1 0
BITMAP
001FF000
00FFFC00
01FFFF00
07F01F80
0FC007C0
0F0001E0
1E0000F0
3C000078
38000078
7800003C
7000003C
7000001C
F000001C
F000001C
E000001E
F000001E
F000001C
7000001C
7000001C
7000003C
78000038
38000078
3C0000F0
1E0001F0
0F0003E0
07C00FC0
03F87F80
01FFFF00
007FFC00
000FE000
ENDCHAR
STARTCHAR P
ENCODING 80
SWIDTH 755 0
DWIDTH 27 0
BBX 25 30 1 0
BITMAP
7FFFFF80
FFFFFF80
FFFFFF80
F0000780
F0000780
F0000700
F0000F00
F0000F00
F0001E00
F0003E00
F0007C00
F000F800
F003F000
FFFFE000
FFFF8000
FFFE0000
FFE00000
F0000000
F0000000
F0000000
F0000000
F0000000
F0000000
F0000000
F0000000
F0000000
F0000000
F0000000
E0000000
E0000000
ENDCHAR
STARTCHAR Q
ENCODING 81
SWIDTH 917 0
DWIDTH 33 0
BBX 31 34 1 -4
BITMAP
001FF000
00FFFC00
01FFFF00
07F81F80
0FC007C0
0F0001E0
1E0000F0
3C000078
38000038
7800003C
7000001C
7000001C
F000001E
E000001E
E000001E
E000001E
E000001E
F000001E
7000001C
7000003C
7800003C
38038078
3C038078
1E0380F0
0F0383E0
07C387C0
03FBBF80
01FFFF00
007FFC00
001FF000
00038000
00038000
00038000
00038000
ENDCHAR
STARTCHAR R
ENCODING 82
SWIDTH 753 0
DWIDTH 27 0
BBX 25 30 1 0
BITMAP
FFFFFF80
FFFFFF80
FFFFFF80
F0000780
F0000780
F0000700
F0000F00
F0000F00
F0001E00
F0003E00
F0007C00
F000F800
F003F000
FFFFE000
FFFF8000
FFFE0000
FFFE0000
F01E0000
F00F0000
F0078000
F0038000
F003C000
F001E000
F000F000
F0007000
F0007800
F0003C00
F0001E00
F0000E00
60000F00
ENDCHAR
STARTCHAR S
ENCODING 83
SWIDTH 912 0
DWIDTH 33 0
BBX 31 30 1 0
BITMAP
FFFFFFF0
FFFFFFF0
FFFFFFE0
70000000
70000000
70000000
78000000
38000000
38000000
3C000000
1E000000
1F000000
0F800000
07FFF800
03FFFF00
00FFFF80
000FFFC0
000003E0
000000F0
00000078
00000078
00000038
0000003C
0000001C
0000001C
0000001C
0000001C
FFFFFFFC
FFFFFFFE
FFFFFFFC
ENDCHAR
STARTCHAR T
ENCODING 84
SWIDTH 913 0
DWIDTH 33 0
BBX 31 30 1 0
BITMAP
FFFFFFFC
FFFFFFFE
FFFFFFFC
00038000
00038000
00038000
00038000
00038000
00038000
00038000
00038000
00038000
00038000
00038000
00038000
00038000
00038000
00038000
00038000
00038000
00038000
00038000
00038000
00038000
00038000
00038000
00038000
00038000
00038000
00038000
ENDCHAR
STARTCHAR U
ENCODING 85
SWIDTH 770 0
DWIDTH 28 0
BBX 25 30 1 0
BITMAP
E0000380
F0000380
F0000380
F0000380
F0000380
F0000380
F0000380
F0000380
F0000380
F0000380
F0000380
F0000380
F0000380
F0000380
F0000380
F0000380
F0000380
F0000380
F0000380
F0000380
F0000380
F0000380
F0000380
F0000380
F0000380
F0000380
F0000380
FFFFFF80
FFFFFF80
FFFFFF80
ENDCHAR
STARTCHAR V
ENCODING 86
SWIDTH 771 0
DWIDTH 28 0
BBX 25 30 1 0
BITMAP
F0000380
F0000780
F0000780
F0000F00
F0001E00
F0001E00
F0003C00
F0003800
F0007800
F000F000
F000F000
F001E000
F003C000
F003C000
F0078000
F0078000
F00F0000
F01E0000
F01E0000
F03C0000
F03C0000
F0780000
F0F00000
F0F00000
F1E00000
F3C00000
F3C00000
FF800000
FF800000
FF000000
ENDCHAR
STARTCHAR W
ENCODING 87
SWIDTH 906 0
DWIDTH 33 0
BBX 30 30 1 0
BITMAP
E003801C
E003801C
E003801C
E003801C
E003801C
E003801C
E003801C
E003801C
E003801C
E003801C
E003801C
E003801C
E003801C
E003801C
E003801C
E003801C
E003801C
E003801C
E003801C
E003801C
E003801C
E003801C
E003801C
E003801C
E003801C
E00FE01C
FFFFFFFC
FFFFFFFC
FFFFFFFC
FF0000FC
ENDCHAR
STARTCHAR X
ENCODING 88
SWIDTH 664 0
DWIDTH 24 0
BBX 22 30 1 0
BITMAP
780038
380078
3C0078
1C00F0
0E01E0
0F01E0
0703C0
078780
038780
01CF00
01EE00
00FE00
00FC00
007C00
007800
00FC00
00FC00
01FE00
03EE00
03C700
078780
078380
0F03C0
1E01C0
1E00E0
3C00F0
3C0070
780078
F80038
F0001C
ENDCHAR
STARTCHAR Y
ENCODING 89
SWIDTH 701 0
DWIDTH 25 0
BBX 23 30 1 0
BITMAP
F0000E
78001E
7C001E
3C001C
1E003C
0F003C
078038
038038
03C078
01E070
00F070
0078F0
0038F0
003CE0
001EE0
000FE0
0007C0
0003C0
0003C0
0003C0
000380
000380
000780
000700
000700
000F00
000F00
000E00
001E00
000E00
ENDCHAR
STARTCHAR Z
ENCODING 90
SWIDTH 915 0
DWIDTH 33 0
BBX 31 30 1 0
BITMAP
FFFFFFFE
FFFFFFFE
FFFFFFFE
0000001C
0000001C
0000001C
0000003C
00000038
00000078
00000078
000000F0
000001F0
000003E0
003FFFC0
01FFFF80
07FFFE00
0FFFE000
1F800000
1E000000
3C000000
3C000000
78000000
78000000
70000000
70000000
F0000000
F0000000
FFFFFFFE
FFFFFFFE
7FFFFFFC
ENDCHAR
STARTCHAR bracketleft
ENCODING 91
SWIDTH 323 0
DWIDTH 12 0
BBX 9 30 1 0
BITMAP
7F80
FF80
FF80
F000
F000
F000
F000
F000
F000
F000
F000
F000
F000
F000
F000
F000
F000
F000
F000
F000
F000
F000
F000
F000
F000
F000
F000
FF80
FF80
7F80
ENDCHAR
STARTCHAR backslash
ENCODING 92
SWIDTH 411 0
DWIDTH 15 0
BBX 12 30 1 0
BITMAP
F000
7000
7000
7800
7800
3800
3800
3C00
1C00
1C00
1E00
0E00
0E00
0F00
0700
0700
0780
0380
0380
03C0
03C0
01C0
01C0
01E0
00E0
00E0
00F0
0070
0070
0070
ENDCHAR
STARTCHAR bracketright
ENCODING 93
SWIDTH 288 0
DWIDTH 10 0
BBX 8 30 1 0
BITMAP
FF
FF
7F
07
07
07
07
07
07
07
07
07
07
07
07
07
07
07
07
07
07
07
07
07
07
07
07
FF
FF
FF
ENDCHAR
STARTCHAR asciicircum
ENCODING 94
SWIDTH 420 0
DWIDTH 15 0
BBX 13 8 1 22
BITMAP
0700
0F80
1FC0
3FE0
7DF0
F8F8
7078
2030
ENDCHAR
STARTCHAR underscore
ENCODING 95
SWIDTH 939 0
DWIDTH 34 0
BBX 31 3 1 -1
BITMAP
FFFFFFFC
FFFFFFFE
FFFFFFFE
ENDCHAR
STARTCHAR grave
ENCODING 96
SWIDTH 189 0
DWIDTH 7 0
BBX 5 8 1 30
BITMAP
40
E0
60
70
70
70
38
30
ENDCHAR
STARTCHAR a
ENCODING 97
SWIDTH 824 0
DWIDTH 30 0
BBX 27 30 1 0
BITMAP
003FFFE0
00FFFFE0
01FFFFE0
07F000E0
0FC000E0
1F0000E0
1E0000E0
3C0000E0
3C0000E0
780000E0
700000E0
700000E0
F00000E0
FFFFFFE0
FFFFFFE0
FFFFFFE0
FFFFFFE0
F00000E0
F00000E0
F00000E0
F00000E0
F00000E0
F00000E0
F00000E0
F00000E0
F00000E0
F00000E0
F00000E0
F00000E0
E00000E0
ENDCHAR
STARTCHAR b
ENCODING 98
SWIDTH 755 0
DWIDTH 27 0
BBX 25 30 1 0
BITMAP
FFFC0000
FFFF8000
FFFFC000
F007F000
F001F800
F0007C00
F0003C00
F0001E00
F0000E00
F0000F00
F0000700
F0000780
F0000780
FFFFFF80
FFFFFF80
FFFFFF80
FFFFFF00
F003F000
F000F800
F0003C00
F0001E00
F0001E00
F0000F00
F0000F00
F0000700
F0000780
F0000780
FFFFFF80
FFFFFF80
7FFFFF80
ENDCHAR
STARTCHAR c
ENCODING 99
SWIDTH 912 0
DWIDTH 33 0
BBX 31 30 1 0
BITMAP
001FFFFE
00FFFFFE
01FFFFFE
07F80000
0FC00000
0F000000
1E000000
3C000000
3C000000
78000000
70000000
70000000
F0000000
F0000000
F0000000
F0000000
F0000000
F0000000
70000000
70000000
78000000
3C000000
3C000000
1E000000
0F000000
07C00000
03F80000
01FFFFFE
007FFFFE
001FFFFC
ENDCHAR
STARTCHAR d
ENCODING 100
SWIDTH 752 0
DWIDTH 27 0
BBX 25 30 1 0
BITMAP
FFFC0000
FFFF8000
FFFFC000
F007F000
F001F800
F0007800
F0003C00
F0001E00
F0000E00
F0000F00
F0000700
F0000700
F0000780
F0000780
F0000780
F0000780
F0000780
F0000780
F0000700
F0000F00
F0000F00
F0001E00
F0001E00
F0003C00
F000F800
F001F000
F00FE000
FFFFC000
FFFF0000
FFFC0000
ENDCHAR
STARTCHAR e
ENCODING 101
SWIDTH 913 0
DWIDTH 33 0
BBX 31 30 1 0
BITMAP
001FFFFC
00FFFFFE
01FFFFFE
07F80000
0FC00000
0F000000
1E000000
3C000000
3C000000
78000000
70000000
70000000
F0000000
FFFFFFFC
FFFFFFFE
FFFFFFFE
FFFFFFFC
F0000000
70000000
70000000
78000000
38000000
3C000000
1E000000
0F000000
07C00000
03F80000
01FFFFFC
007FFFFE
001FFFFC
ENDCHAR
STARTCHAR f
ENCODING 102
SWIDTH 831 0
DWIDTH 30 0
BBX 28 30 1 0
BITMAP
003FFFF0
00FFFFF0
01FFFFF0
07F00000
0FC00000
1F000000
1E000000
3C000000
3C000000
78000000
70000000
70000000
F0000000
FFFFFF00
FFFFFF00
FFFFFF00
FFFFFE00
F0000000
F0000000
F0000000
F0000000
F0000000
F0000000
F0000000
F0000000
F0000000
F0000000
F0000000
F0000000
E0000000
ENDCHAR
STARTCHAR g
ENCODING 103
SWIDTH 913 0
DWIDTH 33 0
BBX 31 30 1 0
BITMAP
001FFFFE
00FFFFFE
01FFFFFC
07F80000
0FC00000
0F000000
1E000000
3C000000
3C000000
78000000
78000000
70000000
F0000000
F007FFFC
F007FFFC
F007FFFC
F000001C
7000001C
7000001C
7000001C
7800001C
3C00001C
3C00001C
1E00001C
0F00001C
07C0001C
03F8001C
01FFFFFC
007FFFFC
000FFFFC
ENDCHAR
STARTCHAR h
ENCODING 104
SWIDTH 653 0
DWIDTH 24 0
BBX 21 30 1 0
BITMAP
F00038
F00038
F00038
F00038
F00038
F00038
F00038
F00038
F00038
F00038
F00038
F00038
F00038
FFFFF8
FFFFF8
FFFFF8
FFFFF8
F00038
F00038
F00038
F00038
F00038
F00038
F00038
F00038
F00038
F00038
F00038
F00038
700038
ENDCHAR
STARTCHAR i
ENCODING 105
SWIDTH 164 0
DWIDTH 6 0
BBX 4 30 1 0
BITMAP
F0
F0
F0
F0
F0
F0
F0
F0
F0
F0
F0
F0
F0
F0
F0
F0
F0
F0
F0
F0
F0
F0
F0
F0
F0
F0
F0
F0
F0
E0
ENDCHAR
STARTCHAR j
ENCODING 106
SWIDTH 755 0
DWIDTH 27 0
BBX 25 30 1 0
BITMAP
00000380
00000380
00000780
00000780
00000780
00000780
00000780
00000780
00000780
00000780
00000780
00000780
00000780
E0000780
F0000780
F0000780
F0000780
70000780
70000780
70000780
78000780
38000780
3C000780
1E000780
0F000780
07C00780
03F80780
01FFFF80
007FFF80
000FFF80
ENDCHAR
STARTCHAR k
ENCODING 107
SWIDTH 749 0
DWIDTH 27 0
BBX 25 30 1 0
BITMAP
E0003800
F0007800
F0007000
F000F000
F001E000
F001E000
F003C000
F003C000
F0078000
F0070000
F00F0000
F01E0000
F01E0000
FFFC0000
FFFF0000
FFFFC000
F00FE000
F001F000
F0007800
F0003C00
F0001E00
F0000E00
F0000F00
F0000700
F0000700
F0000700
F0000780
F0000780
F0000780
E0000780
ENDCHAR
STARTCHAR l
ENCODING 108
SWIDTH 909 0
DWIDTH 33 0
BBX 30 30 1 0
BITMAP
F0000000
F0000000
F0000000
F0000000
F0000000
F0000000
F0000000
F0000000
F0000000
F0000000
F0000000
F0000000
F0000000
F0000000
F0000000
F0000000
F0000000
F0000000
70000000
70000000
78000000
3C000000
3C000000
1E000000
0F000000
07C00000
03F80000
01FFFFFC
007FFFFC
000FFFFC
ENDCHAR
STARTCHAR m
ENCODING 109
SWIDTH 906 0
DWIDTH 33 0
BBX 30 30 1 0
BITMAP
00FFFFFC
03FFFFFC
0FFFFFFC
1FC1C01C
3E01C01C
3C01C01C
7801C01C
7801C01C
F001C01C
F001C01C
F001C01C
F001C01C
F001C01C
F001C01C
F001C01C
F001C01C
F001C01C
F001C01C
7001C01C
0001C01C
0001C01C
0001C01C
0001C01C
0001C01C
0001C01C
0000001C
0000001C
0000001C
0000001C
0000001C
ENDCHAR
STARTCHAR n
ENCODING 110
SWIDTH 906 0
DWIDTH 33 0
BBX 30 30 1 0
BITMAP
00FFFFFC
03FFFFFC
0FFFFFFC
1FC0001C
3E00001C
3C00001C
7800001C
7800001C
F000001C
F000001C
F000001C
F000001C
F000001C
F000001C
F000001C
F000001C
F000001C
F000001C
7000001C
0000001C
0000001C
0000001C
0000001C
0000001C
0000001C
0000001C
0000001C
0000001C
0000001C
0000001C
ENDCHAR
STARTCHAR o
ENCODING 111
SWIDTH 912 0
DWIDTH 33 0
BBX 31 30 1 0
BITMAP
001FF000
00FFFC00
01FFFF00
07F01F80
0FC007C0
0F0001E0
1E0000F0
3C000078
38000078
7800003C
7000003C
7003001C
F007C01C
E00FC01C
E00FE01E
E00FE01E
E00FC01C
7007C01C
7000001C
7000003C
78000038
38000078
3C0000F0
1E0001F0
0F0003E0
07C00FC0
03F87F80
01FFFF00
007FFC00
000FE000
ENDCHAR
STARTCHAR p
ENCODING 112
SWIDTH 751 0
DWIDTH 27 0
BBX 25 30 1 0
BITMAP
FFFC0000
FFFF8000
FFFFC000
F007F000
F001F800
F0007800
F0003C00
F0001E00
F0000E00
F0000F00
F0000700
F0000700
F0000780
FFFFFF80
FFFFFF80
FFFFFF80
FFFFFF00
E0000000
E0000000
E0000000
E0000000
E0000000
E0000000
E0000000
E0000000
E0000000
E0000000
E0000000
E0000000
E0000000
ENDCHAR
STARTCHAR q
ENCODING 113
SWIDTH 850 0
DWIDTH 31 0
BBX 28 36 1 -6
BITMAP
00001FF0
0000FFF0
0003FFF0
000FF870
001F8070
007E0070
00FC0070
01F00070
03E00070
03C00070
07800070
0F800070
0F000070
1E000070
1E000070
1C000070
3C000070
3C000070
38000070
78000070
78000070
70000070
70000070
70001C70
F0001C70
F0001C70
F0001C70
FFFFFFF0
FFFFFFF0
FFFFFFF0
00003C00
00003C00
00003C00
00003C00
00001C00
00001800
ENDCHAR
STARTCHAR r
ENCODING 114
SWIDTH 751 0
DWIDTH 27 0
BBX 25 30 1 0
BITMAP
FFFC0000
FFFF8000
FFFFC000
F007F000
F001F800
F0007800
F0003C00
F0001E00
F0000E00
F0000F00
F0000700
F0000700
F0000780
FFFFFF80
FFFFFF80
FFFFFF80
FFFFFF00
E0780000
E0380000
E03C0000
E01E0000
E00F0000
E00F0000
E0078000
E003C000
E001E000
E001E000
E000F000
E0007800
E0003800
ENDCHAR
STARTCHAR s
ENCODING 115
SWIDTH 912 0
DWIDTH 33 0
BBX 31 30 1 0
BITMAP
FFFFFFF0
FFFFFFF0
FFFFFFE0
70000000
70000000
70000000
78000000
38000000
38000000
3C000000
1E000000
1F000000
0F800000
07FFF800
03FFFF00
00FFFF80
000FFFC0
000003E0
000000F0
00000078
00000078
00000038
0000003C
0000001C
0000001C
0000001C
0000001C
FFFFFFFC
FFFFFFFE
FFFFFFFC
ENDCHAR
STARTCHAR t
ENCODING 116
SWIDTH 913 0
DWIDTH 33 0
BBX 31 30 1 0
BITMAP
FFFFFFFC
FFFFFFFE
FFFFFFFC
00038000
00038000
00038000
00038000
00038000
00038000
00038000
00038000
00038000
00038000
00038000
00038000
00038000
00038000
00038000
00038000
00038000
00038000
00038000
00038000
00038000
00038000
00038000
00038000
00038000
00038000
00038000
ENDCHAR
STARTCHAR u
ENCODING 117
SWIDTH 827 0
DWIDTH 30 0
BBX 28 30 1 0
BITMAP
F00000E0
F00000F0
F00000F0
F00000F0
F00000F0
F00000F0
F00000F0
F00000F0
F00000F0
F00000E0
F00000E0
F00000E0
F00000E0
F00000E0
F00000E0
F00000E0
F00000E0
700000E0
700000E0
780000E0
780000E0
3C0000E0
3C0000E0
1E0000E0
0F8000E0
07C000E0
03F800E0
01FFFFE0
007FFFE0
000FFFE0
ENDCHAR
STARTCHAR v
ENCODING 118
SWIDTH 827 0
DWIDTH 30 0
BBX 27 30 1 0
BITMAP
F00000E0
F00000E0
F00000E0
F00000E0
F00000E0
F00000E0
F00000E0
F00000E0
F00000E0
F00000E0
F00000E0
F00000E0
F00000E0
F00000E0
F00000E0
F00000E0
F00000E0
F00000E0
F00000E0
F00001E0
F00001C0
F00003C0
F0000780
F0000F80
F0001F00
F0003E00
F003FC00
FFFFF800
FFFFE000
FFFF0000
ENDCHAR
STARTCHAR w
ENCODING 119
SWIDTH 917 0
DWIDTH 33 0
BBX 31 30 1 0
BITMAP
F000001E
F000001E
F000001E
F000001E
F000001E
F000001E
F000001E
F000001E
F000001E
F000001E
F000001E
F000001E
F000001E
F003801E
F007801E
F007801E
F007801E
F007801C
F007801C
F007803C
F007803C
F0078078
F0078078
F00780F0
F00783E0
F0078FC0
F007FF80
FFFFFF00
FFFFFC00
FFFFE000
ENDCHAR
STARTCHAR x
ENCODING 120
SWIDTH 664 0
DWIDTH 24 0
BBX 22 30 1 0
BITMAP
780038
780078
3C0078
1C00F0
1E01E0
0F01E0
0F03C0
078780
038780
03CF00
01EE00
01FE00
00FC00
007C00
007800
00FC00
00FC00
01FE00
03CE00
03CF00
078780
078780
0F03C0
1E01C0
1E01E0
3C00F0
3C00F0
780078
F00038
F0003C
ENDCHAR
STARTCHAR y
ENCODING 121
SWIDTH 913 0
DWIDTH 33 0
BBX 31 30 1 0
BITMAP
F000001E
F000001E
F000001E
F000001E
F000001E
7000001E
7800001E
7800001E
3C00001E
1E00001E
1F00001E
0F80001E
07E0001E
03FFFFFE
00FFFFFE
003FFFFE
0001FFFE
0000001E
0000001E
0000001E
0000001E
0000001E
0000001E
0000001E
0000001E
0000001E
0000001E
0000001E
0000001E
0000001E
ENDCHAR
STARTCHAR z
ENCODING 122
SWIDTH 915 0
DWIDTH 33 0
BBX 31 30 1 0
BITMAP
FFFFFFFE
FFFFFFFE
FFFFFFFE
0000001C
0000001C
0000001C
0000003C
00000038
00000078
00000078
000000F0
000001F0
000003E0
003FFFC0
01FFFF80
07FFFE00
0FFFE000
1F800000
1E000000
3C000000
3C000000
78000000
78000000
70000000
70000000
F0000000
F0000000
FFFFFFFE
FFFFFFFE
7FFFFFFC
ENDCHAR
STARTCHAR braceleft
ENCODING 123
SWIDTH 403 0
DWIDTH 15 0
BBX 12 30 1 0
BITMAP
07F0
07F0
07F0
0700
0700
0700
0700
0700
0700
0700
0700
0700
0700
FF00
FF00
FF00
7F00
0700
0700
0700
0700
0F00
0F00
0F00
0F00
0F00
0F00
0FF0
0FF0
07F0
ENDCHAR
STARTCHAR bar
ENCODING 124
SWIDTH 166 0
DWIDTH 6 0
BBX 4 30 1 0
BITMAP
F0
F0
F0
F0
F0
F0
F0
F0
F0
F0
F0
F0
F0
F0
F0
F0
F0
F0
F0
F0
F0
F0
F0
F0
F0
F0
F0
F0
F0
E0
ENDCHAR
STARTCHAR braceright
ENCODING 125
SWIDTH 415 0
DWIDTH 15 0
BBX 13 30 1 0
BITMAP
FF00
FF00
7F00
0700
0700
0700
0700
0700
0700
0700
0700
0700
0700
07F0
07F8
07F8
07F0
0700
0700
0700
0700
0700
0700
0700
0700
0700
0700
7F00
7F00
7F00
ENDCHAR
STARTCHAR asciitilde
ENCODING 126
SWIDTH 913 0
DWIDTH 33 0
BBX 31 4 1 23
BITMAP
FFFFFFFC
FFFFFFFE
FFFFFFFE
7FFFFFFC
ENDCHAR
STARTCHAR quotesinglbase
ENCODING 130
SWIDTH 158 0
DWIDTH 6 0
BBX 3 7 1 -2
BITMAP
60
60
E0
E0
E0
E0
E0
ENDCHAR
STARTCHAR florin
ENCODING 131
SWIDTH 762 0
DWIDTH 27 0
BBX 25 39 1 -9
BITMAP
01FFE000
01FFE000
01FFE000
01E00000
01E00000
01C00000
01C00000
01C00000
01C00000
01C00000
01C00000
01C00000
01C00000
FFFFFF80
FFFFFF80
FFFFFF80
7FFFFF00
01E00000
01E00000
01E00000
01E00000
01C00000
01C00000
01C00000
01C00000
01C00000
01C00000
01C00000
01C00000
01C00000
01C00000
01C00000
01C00000
01C00000
01C00000
01C00000
01C00000
01C00000
01C00000
ENDCHAR
STARTCHAR quotedblbase
ENCODING 132
SWIDTH 232 0
DWIDTH 8 0
BBX 6 7 1 -2
BITMAP
6C
7C
FC
FC
FC
F8
FC
ENDCHAR
STARTCHAR ellipsis
ENCODING 133
SWIDTH 484 0
DWIDTH 17 0
BBX 15 3 1 0
BITMAP
E38E
E38E
E38E
ENDCHAR
STARTCHAR dagger
ENCODING 134
SWIDTH 538 0
DWIDTH 19 0
BBX 17 30 1 0
BITMAP
07F000
07F000
07F000
01C000
01C000
01C000
01C000
FFFF80
FFFF80
FFFF80
01C000
01C000
01C000
01C000
01C000
01C000
01C000
01C000
01C000
01C000
01C000
01C000
01C000
01C000
01C000
01C000
01C000
01C000
01C000
01C000
ENDCHAR
STARTCHAR daggerdbl
ENCODING 135
SWIDTH 540 0
DWIDTH 19 0
BBX 17 30 1 0
BITMAP
07F000
07F000
07F000
01C000
01C000
01C000
01C000
FFFF80
FFFF80
FFFF80
01C000
01C000
01C000
FFFF80
FFFF80
FFFF80
01C000
01C000
01C000
01C000
01C000
01C000
01C000
01C000
01C000
01C000
01C000
01C000
01C000
01C000
ENDCHAR
STARTCHAR circumflex
ENCODING 136
SWIDTH 420 0
DWIDTH 15 0
BBX 13 8 1 31
BITMAP
0200
0700
0F80
1FC0
3FE0
7CF0
F878
7030
ENDCHAR
STARTCHAR perthousand
ENCODING 137
SWIDTH 1188 0
DWIDTH 43 0
BBX 40 30 1 0
BITMAP
07C0001C00
0FF0003E00
1FF0007C00
1C3800F800
383801F000
383803E000
183807C000
1C780F8000
1FF01F0000
0FE03E0000
03C07C0000
0000F80000
0001F00000
0003E00000
0007C00000
000F800000
001F000000
003E000000
007C000000
00F807C078
01F01FE1FE
03E01FF3FE
07C03C7387
0F80383F83
1F00383F03
3E00383F07
7C00387387
F8001FF3FF
70000FE1FE
200007C07C
ENDCHAR
STARTCHAR Scaron
ENCODING 138
SWIDTH 912 0
DWIDTH 33 0
BBX 31 39 1 0
BITMAP
00402000
00E0F000
00F1F000
00F9E000
007FC000
003F8000
001F0000
000E0000
00000000
FFFFFFF0
FFFFFFF0
FFFFFFE0
70000000
70000000
70000000
78000000
38000000
38000000
3C000000
1E000000
1F000000
0F800000
07FFF800
03FFFF00
00FFFF80
000FFFC0
000003E0
000000F0
00000078
00000078
00000038
0000003C
0000001C
0000001C
0000001C
0000001C
FFFFFFFC
FFFFFFFE
FFFFFFFC
ENDCHAR
STARTCHAR guilsinglleft
ENCODING 139
SWIDTH 313 0
DWIDTH 11 0
BBX 9 14 1 8
BITMAP
0380
0780
0F00
1E00
3C00
7800
F000
7000
7800
1C00
0E00
0700
0380
0100
ENDCHAR
STARTCHAR OE
ENCODING 140
SWIDTH 1508 0
DWIDTH 54 0
BBX 52 30 1 0
BITMAP
001FF01FFFFFF0
00FFFC1FFFFFF0
01FFFF1FFFFFF0
07F01F9E000000
0FC007DE000000
0F0001FE000000
1E0000FE000000
3C00007E000000
3800007E000000
7800003E000000
7000003E000000
7000001E000000
F000001E000000
F000001FFFF800
E000001FFFF800
F000001FFFF800
F000001FFFF000
7000001C000000
7000001C000000
7000003C000000
7800003C000000
3800007C000000
3C0000FC000000
1E0001FC000000
0F0003FC000000
07C00FDC000000
03F87F9C000000
01FFFF1FFFFFF0
007FFC1FFFFFF0
000FE01FFFFFF0
ENDCHAR
STARTCHAR quoteleft
ENCODING 145
SWIDTH 191 0
DWIDTH 7 0
BBX 5 7 1 23
BITMAP
E0
E0
70
70
70
30
38
ENDCHAR
STARTCHAR quoteright
ENCODING 146
SWIDTH 157 0
DWIDTH 6 0
BBX 3 7 1 23
BITMAP
60
60
E0
E0
E0
E0
E0
ENDCHAR
STARTCHAR quotedblleft
ENCODING 147
SWIDTH 268 0
DWIDTH 10 0
BBX 7 7 1 23
BITMAP
FC
FC
7C
7E
7E
36
3E
ENDCHAR
STARTCHAR quotedblright
ENCODING 148
SWIDTH 232 0
DWIDTH 8 0
BBX 6 7 1 23
BITMAP
7C
7C
FC
FC
FC
F8
FC
ENDCHAR
STARTCHAR bullet
ENCODING 149
SWIDTH 262 0
DWIDTH 9 0
BBX 7 7 1 12
BITMAP
38
7C
FE
FE
FE
7E
38
ENDCHAR
STARTCHAR endash
ENCODING 150
SWIDTH 899 0
DWIDTH 32 0
BBX 30 4 1 13
BITMAP
FFFFFFFC
FFFFFFFC
FFFFFFFC
7FFFFFF8
ENDCHAR
STARTCHAR emdash
ENCODING 151
SWIDTH 1050 0
DWIDTH 38 0
BBX 36 4 1 13
BITMAP
FFFFFFFFE0
FFFFFFFFF0
FFFFFFFFF0
7FFFFFFFE0
ENDCHAR
STARTCHAR tilde
ENCODING 152
SWIDTH 912 0
DWIDTH 33 0
BBX 31 3 1 31
BITMAP
FFFFFFFC
FFFFFFFE
FFFFFFFE
ENDCHAR
STARTCHAR trademark
ENCODING 153
SWIDTH 1275 0
DWIDTH 46 0
BBX 44 19 1 11
BITMAP
FFFFFF01C0F0
FFFFFFC1E0F0
FFFFFFE1F0F0
007007F1F8F0
00700779FCF0
0070073DDEF0
0070071FCFF0
0070070FC7F0
00700707C1F0
00700701C0F0
00700701C0F0
00700701C0F0
00700701C0F0
00700701C0E0
00700701C0E0
00700701C0E0
00700701C0E0
00700701C0E0
00700701C060
ENDCHAR
STARTCHAR scaron
ENCODING 154
SWIDTH 912 0
DWIDTH 33 0
BBX 31 39 1 0
BITMAP
00402000
00E0F000
00F1F000
00F9E000
007FC000
003F8000
001F0000
000E0000
00000000
FFFFFFF0
FFFFFFF0
FFFFFFE0
70000000
70000000
70000000
78000000
38000000
38000000
3C000000
1E000000
1F000000
0F800000
07FFF800
03FFFF00
00FFFF80
000FFFC0
000003E0
000000F0
00000078
00000078
00000038
0000003C
0000001C
0000001C
0000001C
0000001C
FFFFFFFC
FFFFFFFE
FFFFFFFC
ENDCHAR
STARTCHAR guilsinglright
ENCODING 155
SWIDTH 313 0
DWIDTH 11 0
BBX 9 14 1 8
BITMAP
6000
7000
7800
3C00
1E00
0F00
0780
0780
0F00
1E00
3C00
7800
F000
6000
ENDCHAR
STARTCHAR oe
ENCODING 156
SWIDTH 1659 0
DWIDTH 60 0
BBX 57 30 1 0
BITMAP
001FF00003FFFF80
00FFFC001FFFFF80
01FFFF003FFFFF80
07F01F80FF000000
0FC007C1F8000000
0F0001E3E0000000
1E0000F3C0000000
3C00007F80000000
3800007F00000000
7800003F00000000
7000003E00000000
7003001E00000000
E007C01E00000000
E00FC01FFFFFFF80
E00FE01FFFFFFF80
E00FE01FFFFFFF80
E00FC01FFFFFFF80
6007C01E00000000
7000001E00000000
7000003E00000000
7800003F00000000
3800007F00000000
3C0000FF80000000
1E0001F3C0000000
0F0003E3E0000000
07C00FC1F8000000
03F87F80FF000000
01FFFF003FFFFF80
007FFC000FFFFF80
000FE00003FFFF80
ENDCHAR
STARTCHAR Ydieresis
ENCODING 159
SWIDTH 701 0
DWIDTH 25 0
BBX 23 33 1 1
BITMAP
0E00E0
0E00E0
0E00E0
F0000E
F0001E
78001E
3C001C
1E001C
0F003C
070038
078038
03C078
01E078
00F070
007070
0078F0
003CE0
001EE0
000FE0
0007E0
0003C0
0003C0
0003C0
000380
000380
000780
000700
000700
000F00
000F00
000E00
000E00
001E00
ENDCHAR
STARTCHAR space.dup1
ENCODING 160
SWIDTH 401 0
DWIDTH 14 0
BBX 1 1 0 0
BITMAP
00
ENDCHAR
STARTCHAR exclamdown
ENCODING 161
SWIDTH 166 0
DWIDTH 6 0
BBX 4 30 1 0
BITMAP
F0
F0
E0
00
E0
F0
F0
F0
F0
F0
F0
F0
F0
F0
F0
F0
F0
F0
F0
F0
F0
F0
F0
F0
F0
F0
F0
F0
F0
F0
ENDCHAR
STARTCHAR cent
ENCODING 162
SWIDTH 537 0
DWIDTH 19 0
BBX 17 30 1 0
BITMAP
01E000
01E000
01E000
01E000
01E000
01E000
01E000
07FF80
1FFF80
3FFF80
7DE380
79E380
71E000
F1E000
F1E000
F1E000
F1E000
71E000
79E380
3DE380
1FFF80
0FFF80
07FF80
01E000
01E000
01E000
01E000
01E000
01E000
01E000
ENDCHAR
STARTCHAR sterling
ENCODING 163
SWIDTH 1060 0
DWIDTH 38 0
BBX 36 30 1 0
BITMAP
001E000000
001E000000
001E000000
001E000000
001E000000
001E000000
001E000000
001E000000
001E000000
001E000000
FFFFFFE000
FFFFFFE000
FFFFFFE000
001E000000
001E000000
001E000000
001E000000
FFFFFFE000
FFFFFFE000
FFFFFFE000
001E000000
001E000000
001E000000
001E000000
001E000000
001E000000
001E000000
001FFFFFF0
001FFFFFF0
001FFFFFF0
ENDCHAR
STARTCHAR currency
ENCODING 164
SWIDTH 1021 0
DWIDTH 37 0
BBX 34 30 1 0
BITMAP
00001FFFC0
0000FFFFC0
0001FFFFC0
0003F80000
0007C00000
000F800000
001E000000
003C000000
003C000000
0078000000
7FFFFE0000
7FFFFE0000
0070000000
00F0000000
00F0000000
00F0000000
FFFFFE0000
FFFFFE0000
7FFFFC0000
0078000000
0078000000
003C000000
003C000000
001E000000
000F800000
0007C00000
0003FC0000
0001FFFFC0
00007FFFC0
00000FFFC0
ENDCHAR
STARTCHAR yen
ENCODING 165
SWIDTH 1088 0
DWIDTH 39 0
BBX 37 30 1 0
BITMAP
F000038000
F000038000
F000038000
F000038000
7000038000
7000038000
7800038000
3800038000
3C00078000
1E00078000
1F00078000
0F80078000
07E0078000
03FFFFFC00
00FFFFFC00
003FFFFC00
0001FFFC00
003FFFFFF0
003FFFFFF8
003FFFFFF8
000001E000
000003C000
000003C000
003FFFFFF8
003FFFFFF8
003FFFFFF0
00001E0000
00003C0000
0000780000
0000780000
ENDCHAR
STARTCHAR brokenbar
ENCODING 166
SWIDTH 167 0
DWIDTH 6 0
BBX 4 30 1 0
BITMAP
F0
F0
F0
F0
F0
F0
F0
F0
F0
F0
F0
F0
00
00
00
00
00
00
F0
F0
F0
F0
F0
F0
F0
F0
F0
F0
F0
E0
ENDCHAR
STARTCHAR section
ENCODING 167
SWIDTH 795 0
DWIDTH 29 0
BBX 26 39 1 -9
BITMAP
FFFFFF00
FFFFFE00
FFFFFE00
F0000000
F0000000
F0000000
F0000000
70000000
78000000
78000000
3E000000
7FFFF000
FFFFFC00
FFFFFE00
F0003F00
F0000F80
F0000780
F00003C0
700003C0
700003C0
780001C0
780001C0
3C0001C0
3E0001C0
1FFFFFC0
0FFFFFC0
07FFFFC0
00FFFFC0
00000F80
00000780
000003C0
000001C0
000001C0
000001C0
000001C0
000001C0
7FFFFFC0
7FFFFFC0
7FFFFFC0
ENDCHAR
STARTCHAR dieresis
ENCODING 168
SWIDTH 485 0
DWIDTH 17 0
BBX 15 3 1 30
BITMAP
E00E
E00E
600E
ENDCHAR
STARTCHAR copyright
ENCODING 169
SWIDTH 912 0
DWIDTH 33 0
BBX 31 30 1 0
BITMAP
001FF000
00FFFC00
01FFFF00
07F01F80
0FC007C0
0F0001E0
1E0000F0
3C3FFC78
387FFE78
78FFF83C
71F0003C
73C0001C
E3C0001C
E380001C
E380001E
E380001E
E380001C
63C0001C
71C0001C
71F0003C
78FFFC38
387FFC78
3C1FFCF0
1E0001F0
0F0003E0
07C00FC0
03F87F80
01FFFF00
007FFC00
000FE000
ENDCHAR
STARTCHAR ordfeminine
ENCODING 170
SWIDTH 548 0
DWIDTH 20 0
BBX 17 23 1 7
BITMAP
7FE000
7FF800
7FFC00
001E00
000F00
000780
000380
000380
7FFF80
7FFF80
7FFF80
700380
700380
700700
700F00
707E00
7FFC00
7FF800
7FC000
7FFF00
FFFF80
FFFF80
7FFF80
ENDCHAR
STARTCHAR guillemotleft
ENCODING 171
SWIDTH 618 0
DWIDTH 22 0
BBX 20 19 1 5
BITMAP
007060
00F0F0
01E1E0
03C3C0
078780
0F0F00
1E1E00
3C3C00
787800
F0F000
787800
3C3C00
1E1E00
0F0F00
078780
03C3C0
01E1E0
00F0F0
006060
ENDCHAR
STARTCHAR logicalnot
ENCODING 172
SWIDTH 912 0
DWIDTH 33 0
BBX 31 11 1 6
BITMAP
FFFFFFFC
FFFFFFFE
FFFFFFFE
7FFFFFFC
0000001C
0000001C
0000001C
0000001C
0000001C
0000001C
0000001C
ENDCHAR
STARTCHAR registered
ENCODING 174
SWIDTH 636 0
DWIDTH 23 0
BBX 21 21 1 10
BITMAP
00F800
07FE00
0FFF80
1F07C0
3FC1E0
7BF8E0
73FC70
730E70
E30630
E3FF38
E3FF38
E3FE38
633C30
731C70
730E70
3B06E0
3C01E0
1F07C0
0FFF80
03FE00
002000
ENDCHAR
STARTCHAR macron
ENCODING 175
SWIDTH 537 0
DWIDTH 19 0
BBX 17 3 1 31
BITMAP
FFFF80
FFFF80
FFFF80
ENDCHAR
STARTCHAR degree
ENCODING 176
SWIDTH 261 0
DWIDTH 9 0
BBX 7 7 1 23
BITMAP
38
7C
FE
E6
EE
7E
3C
ENDCHAR
STARTCHAR plusminus
ENCODING 177
SWIDTH 928 0
DWIDTH 33 0
BBX 31 30 1 0
BITMAP
0003C000
0003C000
0003C000
0003C000
0003C000
0003C000
0003C000
0003C000
0003C000
7FFFFFFE
7FFFFFFE
7FFFFFFE
0003C000
0003C000
0003C000
0003C000
0003C000
0003C000
0003C000
0003C000
00018000
00000000
00000000
00000000
00000000
00000000
00000000
FFFFFFFE
FFFFFFFE
7FFFFFFE
ENDCHAR
STARTCHAR twosuperior
ENCODING 178
SWIDTH 603 0
DWIDTH 22 0
BBX 19 19 1 11
BITMAP
FFFFE0
FFFFE0
7FFFE0
0000E0
0001E0
0001E0
0003C0
0007C0
07FF80
1FFF00
1FFC00
3C0000
780000
780000
700060
7000E0
FFFFE0
FFFFE0
7FFFE0
ENDCHAR
STARTCHAR threesuperior
ENCODING 179
SWIDTH 606 0
DWIDTH 22 0
BBX 20 19 1 11
BITMAP
FFFC00
FFFE00
FFFF80
E00780
6001C0
0001E0
0000E0
0000E0
FFFFE0
FFFFF0
7FFFE0
0000E0
0001E0
0001E0
0003C0
000F80
FFFF00
FFFE00
FFF800
ENDCHAR
STARTCHAR acute
ENCODING 180
SWIDTH 287 0
DWIDTH 10 0
BBX 8 8 1 30
BITMAP
04
0F
1F
3E
7C
F8
70
20
ENDCHAR
STARTCHAR mu
ENCODING 181
SWIDTH 774 0
DWIDTH 28 0
BBX 26 39 1 -9
BITMAP
700003C0
F00003C0
F00003C0
F00003C0
F00003C0
F00003C0
F00003C0
F00003C0
F00003C0
F00003C0
F00003C0
F00003C0
F00003C0
F00003C0
F00003C0
F00003C0
F00003C0
F00003C0
F00003C0
F00003C0
F00003C0
F00003C0
F00003C0
F00003C0
F00003C0
F00003C0
F00003C0
FFFFFFC0
FFFFFFC0
FFFFFF80
F0000000
F0000000
F0000000
F0000000
F0000000
F0000000
F0000000
F0000000
F0000000
ENDCHAR
STARTCHAR paragraph
ENCODING 182
SWIDTH 982 0
DWIDTH 35 0
BBX 33 30 1 0
BITMAP
FFFFFFFE00
7FFFFFFE00
7FFFFFFE00
7FFFFFCE00
3FFFFFCE00
3FFFFFCE00
1FFFFFCE00
0FFFFFCE00
0FFFFFCE00
07FFFFCE00
03FFFFCE00
01FFFFCE00
00FFFFCE00
003FFFCE00
001FFFCE00
0003FFCE00
00001FCE00
000003CE00
000003CE00
000003CE00
000003CE00
000003CE00
000003CE00
000003CE00
000001CE00
000001CE00
000001CE00
00000FFF80
00000FFF80
000007FF80
ENDCHAR
STARTCHAR periodcentered
ENCODING 183
SWIDTH 158 0
DWIDTH 6 0
BBX 3 3 1 14
BITMAP
60
E0
E0
ENDCHAR
STARTCHAR cedilla
ENCODING 184
SWIDTH 253 0
DWIDTH 9 0
BBX 7 8 1 -5
BITMAP
0E
0E
0E
0E
0E
7E
FE
FE
ENDCHAR
STARTCHAR onesuperior
ENCODING 185
SWIDTH 248 0
DWIDTH 9 0
BBX 7 19 1 11
BITMAP
FC
FC
FC
1C
1C
1C
1C
1C
1C
3C
3C
3C
38
38
38
7C
FE
FE
7C
ENDCHAR
STARTCHAR ordmasculine
ENCODING 186
SWIDTH 603 0
DWIDTH 22 0
BBX 19 23 1 7
BITMAP
03F800
0FFE00
1FFF80
3E0780
3801C0
7001E0
7000E0
E000E0
E000E0
E00060
E000E0
6000E0
7000E0
7801C0
3C03C0
1F0F80
0FFF00
07FE00
00F000
000000
3FFFC0
3FFFC0
3FFFC0
ENDCHAR
STARTCHAR guillemotright
ENCODING 187
SWIDTH 620 0
DWIDTH 22 0
BBX 20 19 1 5
BITMAP
606000
F07000
787800
3C3C00
1E1E00
0F0F00
078780
03C3C0
01E1E0
00F0F0
01F1E0
03E3E0
07C7C0
0F8F80
1F1F00
3E3E00
7C7C00
F8F800
707000
ENDCHAR
STARTCHAR onequarter
ENCODING 188
SWIDTH 1048 0
DWIDTH 38 0
BBX 35 32 1 -2
BITMAP
3F00006000
3F00007000
3F0000F000
070001E000
070003E000
070007C000
0F000F8000
0F001F0000
0E003E0000
0E003C0000
0E00780000
0E00F80700
0E01F00700
0E03E00700
0E07F00700
1E0FF00700
3F0F780700
3F1E380700
3F3E1E0700
007C1FFFE0
00F807FFE0
01F003FFE0
03E0000700
03C0000700
0780000700
0F00000700
1F00000700
3E00000700
7C00000700
F800000700
7000000000
2000000000
ENDCHAR
STARTCHAR onehalf
ENCODING 189
SWIDTH 1041 0
DWIDTH 37 0
BBX 35 32 1 -2
BITMAP
1F80006000
1F80007000
1F8000F000
038001E000
038003E000
038007C000
03800F8000
07801F0000
07803E0000
07803C0000
0700780000
0700FFFFE0
0701FFFFE0
0703FFFFE0
0707C001E0
0F8F8001E0
1F8F0001E0
1FDE0003C0
0FBE0007C0
007C07FF80
00F81FFF00
01F01FFC00
03E03E0000
03C0780000
0780780000
0F007000E0
1F00F000E0
3E00FFFFE0
7C00FFFFE0
F800FFFFE0
7000000000
2000000000
ENDCHAR
STARTCHAR threequarters
ENCODING 190
SWIDTH 1217 0
DWIDTH 44 0
BBX 41 32 1 -2
BITMAP
FFFC00018000
FFFE0003C000
FFFF8003C000
E003C0078000
6001C00F8000
0001E01F0000
0000E03E0000
0000E07C0000
FFFFE0F80000
FFFFF0F00000
7FFFE1E00000
0000E3E01C00
0001E7C01C00
0001EFC01C00
0003DFC01C00
000FBFC01C00
FFFF3DE01C00
FFFE78F01C00
7FF0F8781C00
0001F03FFF80
0003E01FFF80
0007C007FF80
000F80001C00
000F00001C00
001E00001C00
003C00001C00
007C00001C00
00F800001C00
01F000001C00
03E000001C00
03C000000000
008000000000
ENDCHAR
STARTCHAR questiondown
ENCODING 191
SWIDTH 910 0
DWIDTH 33 0
BBX 31 30 1 0
BITMAP
00007000
00007000
00007000
00000000
00007000
00007000
00007000
00007000
00007000
00007000
00007000
00007000
00007000
FFFFF000
FFFFF000
FFFFF000
FFFFE000
F0000000
70000000
70000000
78000000
3C000000
3C00000C
1E00001E
0F00001E
07C0001E
03F8001E
01FFFFFE
007FFFFE
000FFFFC
ENDCHAR
STARTCHAR Agrave
ENCODING 192
SWIDTH 831 0
DWIDTH 30 0
BBX 28 38 1 0
BITMAP
00004000
0000E000
00006000
00007000
00007000
00007000
00003000
00003000
003FFFF0
00FFFFF0
01FFFFF0
07F000F0
0FC000F0
0F0000F0
1E0000F0
3C0000F0
3C0000F0
780000F0
700000F0
700000F0
700000F0
FFFFFFF0
FFFFFFF0
FFFFFFF0
FFFFFFF0
F00000F0
F00000F0
F00000F0
F00000F0
F00000F0
F00000F0
F00000F0
F00000F0
F00000F0
F00000F0
F00000F0
F00000F0
F00000E0
ENDCHAR
STARTCHAR Aacute
ENCODING 193
SWIDTH 831 0
DWIDTH 30 0
BBX 28 38 1 0
BITMAP
00000C00
00001C00
00003E00
00007C00
0000F800
0000F000
0000E000
00004000
003FFFF0
00FFFFF0
01FFFFF0
07F000F0
0FC000F0
0F0000F0
1E0000F0
3C0000F0
3C0000F0
780000F0
700000F0
700000F0
700000F0
FFFFFFF0
FFFFFFF0
FFFFFFF0
FFFFFFF0
F00000F0
F00000F0
F00000F0
F00000F0
F00000F0
F00000F0
F00000F0
F00000F0
F00000F0
F00000F0
F00000F0
F00000F0
F00000E0
ENDCHAR
STARTCHAR Acircumflex
ENCODING 194
SWIDTH 831 0
DWIDTH 30 0
BBX 28 39 1 0
BITMAP
00002000
00007000
0000F800
0001FC00
0007DE00
000F8F00
000F0780
00060300
00000000
003FFFF0
00FFFFF0
01FFFFF0
07F000F0
0FC000F0
0F0000F0
1E0000F0
3C0000F0
3C0000F0
780000F0
700000F0
700000F0
700000F0
FFFFFFF0
FFFFFFF0
FFFFFFF0
FFFFFFF0
F00000F0
F00000F0
F00000F0
F00000F0
F00000F0
F00000F0
F00000F0
F00000F0
F00000F0
F00000F0
F00000F0
F00000F0
F00000E0
ENDCHAR
STARTCHAR Atilde
ENCODING 195
SWIDTH 913 0
DWIDTH 33 0
BBX 31 34 1 0
BITMAP
FFFFFFFC
FFFFFFFE
FFFFFFFE
00000000
000FFFF8
003FFFF8
00FFFFF8
01FC0038
03E00038
07C00038
0F800038
0F000038
1E000038
1C000038
3C000038
3C000038
38000038
3FFFFFF8
3FFFFFF8
3FFFFFF8
3FFFFFF8
38000038
38000038
38000038
38000038
38000038
38000038
38000038
38000038
38000038
38000038
38000038
38000038
38000038
ENDCHAR
STARTCHAR Adieresis
ENCODING 196
SWIDTH 824 0
DWIDTH 30 0
BBX 27 34 1 0
BITMAP
00060060
000F00E0
000700E0
00000000
003FFFE0
00FFFFE0
01FFFFE0
07F000E0
0FC000E0
1F0000E0
1E0000E0
3C0000E0
3C0000E0
780000E0
700000E0
700000E0
F00000E0
FFFFFFE0
FFFFFFE0
FFFFFFE0
FFFFFFE0
F00000E0
F00000E0
F00000E0
F00000E0
F00000E0
F00000E0
F00000E0
F00000E0
F00000E0
F00000E0
F00000E0
F00000E0
E00000E0
ENDCHAR
STARTCHAR Aring
ENCODING 197
SWIDTH 824 0
DWIDTH 30 0
BBX 27 37 1 0
BITMAP
0001F000
0003F800
0003B800
0003B800
0001F800
0001F000
00000000
003FFFE0
00FFFFE0
01FFFFE0
07F000E0
0FC000E0
1F0000E0
1E0000E0
3C0000E0
3C0000E0
780000E0
700000E0
700000E0
F00000E0
FFFFFFE0
FFFFFFE0
FFFFFFE0
FFFFFFE0
F00000E0
F00000E0
F00000E0
F00000E0
F00000E0
F00000E0
F00000E0
F00000E0
F00000E0
F00000E0
F00000E0
F00000E0
E00000E0
ENDCHAR
STARTCHAR AE
ENCODING 198
SWIDTH 1427 0
DWIDTH 51 0
BBX 49 30 1 0
BITMAP
003FFFFFFFFF80
00FFFFFFFFFF80
01FFFFFFFFFF80
07F000F0000000
0FC000F0000000
0F0000F0000000
1E0000F0000000
3C0000F0000000
3C0000F0000000
780000F0000000
700000F0000000
700000F0000000
700000F0000000
FFFFFFFFFFC000
FFFFFFFFFFC000
FFFFFFFFFFC000
FFFFFFFFFF8000
F00000F0000000
F00000F0000000
F00000F0000000
F00000F0000000
F00000F0000000
F00000F0000000
F00000F0000000
F00000F0000000
F00000F0000000
F00000F0000000
F00000FFFFFF80
F00000FFFFFF80
F00000FFFFFF80
ENDCHAR
STARTCHAR Ccedilla
ENCODING 199
SWIDTH 764 0
DWIDTH 28 0
BBX 25 35 1 -5
BITMAP
FFFFFF80
FFFFFF80
FFFFFF80
F0000000
F0000000
F0000000
F0000000
F0000000
F0000000
F0000000
F0000000
F0000000
F0000000
F0000000
F0000000
F0000000
F0000000
F0000000
F0000000
F0000000
F0000000
F0000000
F0000000
F0000000
F0000000
F0000000
F0000000
FFFFFF80
FFFFFF80
7FFFFF80
00038000
00038000
001F8000
003F8000
003F8000
ENDCHAR
STARTCHAR Egrave
ENCODING 200
SWIDTH 763 0
DWIDTH 27 0
BBX 25 38 1 0
BITMAP
00180000
00380000
001C0000
001C0000
001C0000
000C0000
000E0000
00000000
FFFFFF80
FFFFFF80
FFFFFF80
F0000000
F0000000
F0000000
F0000000
F0000000
F0000000
F0000000
F0000000
F0000000
F0000000
FFFFC000
FFFFC000
FFFFC000
FFFF8000
F0000000
F0000000
F0000000
F0000000
F0000000
F0000000
F0000000
F0000000
F0000000
F0000000
FFFFFF80
FFFFFF80
FFFFFF80
ENDCHAR
STARTCHAR Eacute
ENCODING 201
SWIDTH 763 0
DWIDTH 27 0
BBX 25 38 1 0
BITMAP
00030000
00078000
000F8000
001F0000
003E0000
003C0000
00380000
00000000
FFFFFF80
FFFFFF80
FFFFFF80
F0000000
F0000000
F0000000
F0000000
F0000000
F0000000
F0000000
F0000000
F0000000
F0000000
FFFFC000
FFFFC000
FFFFC000
FFFF8000
F0000000
F0000000
F0000000
F0000000
F0000000
F0000000
F0000000
F0000000
F0000000
F0000000
FFFFFF80
FFFFFF80
7FFFFF80
ENDCHAR
STARTCHAR Ecircumflex
ENCODING 202
SWIDTH 763 0
DWIDTH 27 0
BBX 25 38 1 0
BITMAP
001E0000
003F0000
007F8000
00FFC000
01F3E000
01E1E000
01C0E000
00000000
FFFFFF80
FFFFFF80
FFFFFF80
F0000000
F0000000
F0000000
F0000000
F0000000
F0000000
F0000000
F0000000
F0000000
F0000000
FFFFC000
FFFFC000
FFFFC000
FFFF8000
F0000000
F0000000
F0000000
F0000000
F0000000
F0000000
F0000000
F0000000
F0000000
F0000000
FFFFFF80
FFFFFF80
FFFFFF80
ENDCHAR
STARTCHAR Edieresis
ENCODING 203
SWIDTH 763 0
DWIDTH 27 0
BBX 25 34 1 0
BITMAP
01803800
03803800
03803800
00000000
FFFFFF80
FFFFFF80
FFFFFF80
F0000000
F0000000
F0000000
F0000000
F0000000
F0000000
F0000000
F0000000
F0000000
F0000000
FFFFC000
FFFFC000
FFFFC000
FFFF8000
F0000000
F0000000
F0000000
F0000000
F0000000
F0000000
F0000000
F0000000
F0000000
F0000000
FFFFFF80
FFFFFF80
FFFFFF80
ENDCHAR
STARTCHAR Igrave
ENCODING 204
SWIDTH 189 0
DWIDTH 7 0
BBX 5 38 1 0
BITMAP
E0
E0
60
70
70
70
38
00
70
70
70
70
70
70
F0
F0
F0
F0
F0
F0
F0
F0
F0
F0
F0
F0
F0
F0
F0
F0
F0
F0
F0
F0
F0
F0
F0
70
ENDCHAR
STARTCHAR Iacute
ENCODING 205
SWIDTH 286 0
DWIDTH 10 0
BBX 8 38 1 0
BITMAP
06
0F
1F
3E
7C
F8
70
20
1C
1C
1C
1C
1C
1C
1C
1C
1C
1C
1C
1C
1C
1C
1C
1C
1C
1C
1C
1C
1C
1C
1C
1C
1C
1C
1C
1C
1C
1C
ENDCHAR
STARTCHAR Icircumflex
ENCODING 206
SWIDTH 420 0
DWIDTH 15 0
BBX 13 39 1 0
BITMAP
0200
0700
0F80
1FC0
3FE0
7CF0
F878
7038
0000
0700
0700
0700
0700
0700
0700
0700
0700
0700
0700
0700
0700
0700
0700
0700
0700
0700
0700
0700
0700
0700
0700
0700
0700
0700
0700
0700
0700
0700
0700
ENDCHAR
STARTCHAR Idieresis
ENCODING 207
SWIDTH 485 0
DWIDTH 17 0
BBX 15 34 1 0
BITMAP
E00E
E00E
E00E
0000
0380
0380
0380
0380
0380
0380
0380
0380
0380
0380
0380
0380
0380
0380
0380
0380
0380
0380
0380
0380
0380
0380
0380
0380
0380
0380
0380
0380
0380
0380
ENDCHAR
STARTCHAR Eth
ENCODING 208
SWIDTH 936 0
DWIDTH 34 0
BBX 31 30 1 0
BITMAP
01FFF800
01FFFE00
01FFFF80
01C00FC0
01C003E0
01C000F0
01C00078
01C00038
01C0003C
01C0001C
01C0001E
01C0000E
01C0000E
FFFF800E
FFFF800E
FFFF800E
01FF000E
01C0000E
01C0001E
01C0001E
01C0001C
01C0003C
01C00078
01C000F8
01C001F0
01C007E0
01C03FC0
01FFFF80
01FFFE00
01FFF000
ENDCHAR
STARTCHAR Ntilde
ENCODING 209
SWIDTH 831 0
DWIDTH 30 0
BBX 28 33 1 0
BITMAP
FFFFFFE0
FFFFFFE0
7FFFFFE0
F00000F0
FC0000F0
FF0000F0
FF8000F0
F7E000F0
F1F800F0
F07E00F0
F03F00F0
F00FC0F0
F003F0F0
F001F8F0
F0007EF0
F0001FF0
F0000FF0
F00003F0
F00000F0
F00000F0
F00000F0
F00000F0
F00000F0
F00000F0
F00000F0
F00000F0
F00000F0
F00000F0
F00000F0
F00000F0
F00000F0
F00000F0
60000060
ENDCHAR
STARTCHAR Ograve
ENCODING 210
SWIDTH 910 0
DWIDTH 33 0
BBX 30 38 1 0
BITMAP
00020000
00070000
00070000
00030000
00038000
00038000
00038000
00010000
001FF000
00FFFC00
01FFFF00
07F01F80
0FC007C0
1F0001E0
1E0000F0
3C000078
38000078
78000038
7000003C
7000001C
F000001C
F000001C
F000001C
F000001C
F000001C
F000001C
7000001C
7000003C
78000038
3C000078
3C0000F0
1E0001F0
0F0003E0
07C00FC0
03F87F80
01FFFF00
007FFC00
000FE000
ENDCHAR
STARTCHAR Oacute
ENCODING 211
SWIDTH 912 0
DWIDTH 33 0
BBX 31 38 1 0
BITMAP
00003000
00007800
0000F800
0001F000
0003E000
0007C000
00038000
00010000
001FF000
00FFFC00
01FFFF00
07F01F80
0FC007C0
0F0001E0
1E0000F0
3C000078
38000078
7800003C
7000003C
7000001C
E000001C
E000001C
E000001E
E000001E
E000001C
6000001C
7000001C
7000003C
78000038
38000078
3C0000F0
1E0001F0
0F0003E0
07C00FC0
03F87F80
01FFFF00
007FFC00
000FE000
ENDCHAR
STARTCHAR Ocircumflex
ENCODING 212
SWIDTH 910 0
DWIDTH 33 0
BBX 30 39 1 0
BITMAP
0000C000
0001E000
0003F000
0007F800
000FFC00
001F3E00
001E1E00
001C0E00
00000000
001FF000
00FFFC00
01FFFF00
07F01F80
0FC007C0
1F0001E0
1E0000F0
3C000078
38000078
78000038
7000003C
7000001C
F000001C
F000001C
F000001C
F000001C
F000001C
F000001C
7000001C
7000003C
78000038
3C000078
3C0000F0
1E0001F0
0F0003E0
07C00FC0
03F87F80
01FFFF00
007FFC00
000FE000
ENDCHAR
STARTCHAR Otilde
ENCODING 213
SWIDTH 910 0
DWIDTH 33 0
BBX 30 33 1 0
BITMAP
7FFFFFF8
7FFFFFF8
3FFFFFF8
001FF000
00FFFC00
01FFFF00
07F01F80
0FC007C0
1F0001E0
1E0000F0
3C000078
38000078
78000038
7000003C
7000001C
F000001C
F000001C
F000001C
F000001C
F000001C
F000001C
7000001C
7000003C
78000038
3C000078
3C0000F0
1E0001F0
0F0003E0
07C00FC0
03F87F80
01FFFF00
007FFC00
000FE000
ENDCHAR
STARTCHAR Odieresis
ENCODING 214
SWIDTH 912 0
DWIDTH 33 0
BBX 31 34 1 0
BITMAP
00E00C00
00E00E00
00E00E00
00000000
001FF000
00FFFC00
01FFFF00
07F01F80
0FC007C0
0F0001E0
1E0000F0
3C000078
38000078
7800003C
7000003C
7000001C
E000001C
E000001C
E000001E
E000001E
E000001C
6000001C
7000001C
7000003C
78000038
38000078
3C0000F0
1E0001F0
0F0003E0
07C00FC0
03F87F80
01FFFF00
007FFC00
000FE000
ENDCHAR
STARTCHAR multiply
ENCODING 215
SWIDTH 795 0
DWIDTH 29 0
BBX 26 22 1 4
BITMAP
70000000
F8000300
7C000780
3E000F80
0F003F00
07807E00
03E0F800
01F1F000
00FFE000
007FC000
003F8000
003F0000
007F8000
01FBE000
03F1F000
07C0F800
0F807C00
3F001E00
7E000F00
3C0007C0
100003C0
000001C0
ENDCHAR
STARTCHAR Oslash
ENCODING 216
SWIDTH 928 0
DWIDTH 33 0
BBX 30 30 2 0
BITMAP
003FF018
00FFFC3C
03FFFFF8
07F03FF0
0FC007E0
1F0007E0
3E000FF0
3C001FF0
78003E78
78007C38
7000F838
F001F03C
E003E01C
E007C01C
E00F801C
E01F001C
E03E001C
E07C003C
F0F8003C
71F00038
7BE00078
7FC00078
3F8000F0
1F0001E0
3F0003E0
7FC00FC0
7FF87F80
F1FFFE00
E07FFC00
401FE000
ENDCHAR
STARTCHAR Ugrave
ENCODING 217
SWIDTH 770 0
DWIDTH 28 0
BBX 25 37 1 1
BITMAP
00300000
00700000
00300000
00380000
00380000
00380000
00180000
E0000380
F0000380
F0000380
F0000380
F0000380
F0000380
F0000380
F0000380
F0000380
F0000380
F0000380
F0000380
F0000380
F0000380
F0000380
F0000380
F0000380
F0000380
F0000380
F0000380
F0000380
F0000380
F0000380
F0000380
F0000380
F0000380
F0000380
FFFFFF80
FFFFFF80
FFFFFF80
ENDCHAR
STARTCHAR Uacute
ENCODING 218
SWIDTH 770 0
DWIDTH 28 0
BBX 25 37 1 1
BITMAP
00060000
000F0000
001F0000
003E0000
007C0000
00780000
00700000
E0000380
F0000380
F0000380
F0000380
F0000380
F0000380
F0000380
F0000380
F0000380
F0000380
F0000380
F0000380
F0000380
F0000380
F0000380
F0000380
F0000380
F0000380
F0000380
F0000380
F0000380
F0000380
F0000380
F0000380
F0000380
F0000380
F0000380
FFFFFF80
FFFFFF80
FFFFFF80
ENDCHAR
STARTCHAR Ucircumflex
ENCODING 219
SWIDTH 770 0
DWIDTH 28 0
BBX 25 37 1 1
BITMAP
000E0000
001F0000
003F8000
007FC000
00F3E000
01F1E000
01E0E000
E0000380
F0000380
F0000380
F0000380
F0000380
F0000380
F0000380
F0000380
F0000380
F0000380
F0000380
F0000380
F0000380
F0000380
F0000380
F0000380
F0000380
F0000380
F0000380
F0000380
F0000380
F0000380
F0000380
F0000380
F0000380
F0000380
F0000380
FFFFFF80
FFFFFF80
FFFFFF80
ENDCHAR
STARTCHAR Udieresis
ENCODING 220
SWIDTH 770 0
DWIDTH 28 0
BBX 25 33 1 1
BITMAP
03007000
03807000
03807000
E0000380
F0000380
F0000380
F0000380
F0000380
F0000380
F0000380
F0000380
F0000380
F0000380
F0000380
F0000380
F0000380
F0000380
F0000380
F0000380
F0000380
F0000380
F0000380
F0000380
F0000380
F0000380
F0000380
F0000380
F0000380
F0000380
F0000380
FFFFFF80
FFFFFF80
FFFFFF80
ENDCHAR
STARTCHAR Yacute
ENCODING 221
SWIDTH 701 0
DWIDTH 25 0
BBX 23 36 1 1
BITMAP
000380
000780
000F00
001E00
003C00
003800
F0000E
F0001E
78001E
3C001C
1E001C
0F003C
070038
078038
03C078
01E078
00F070
007070
0078F0
003CE0
001EE0
000FE0
0007E0
0003C0
0003C0
0003C0
000380
000380
000780
000700
000700
000F00
000F00
000E00
000E00
001E00
ENDCHAR
STARTCHAR Thorn
ENCODING 222
SWIDTH 817 0
DWIDTH 29 0
BBX 27 30 1 0
BITMAP
FF000000
FF000000
FF000000
3C000000
3C000000
3C000000
3FFFFFE0
3FFFFFE0
3FFFFFE0
3FFFFFE0
3C0001E0
3C0001E0
3C0001C0
3C0003C0
3C0003C0
3C000780
3C000F80
3C001F00
3C007E00
3C03FC00
3FFFF800
3FFFE000
3FFF0000
3C000000
3C000000
3C000000
3C000000
FF000000
FF000000
FF000000
ENDCHAR
STARTCHAR germandbls
ENCODING 223
SWIDTH 759 0
DWIDTH 27 0
BBX 25 39 1 -9
BITMAP
7FFFFF80
FFFFFF80
FFFFFF80
F0000780
F0000780
F0000700
F0000F00
F0000F00
F0001E00
F0003E00
F0007C00
F000F800
F003F000
F0FFFF80
F0FFFF80
F0FFFF80
F07FFF80
F0000380
F0000380
F0000380
F0000380
F0000380
F0000380
F0000380
F0000380
F0000380
F0000380
F07FFF80
F07FFF80
F03FFF80
F0000000
F0000000
F0000000
F0000000
F0000000
F0000000
F0000000
F0000000
F0000000
ENDCHAR
STARTCHAR agrave
ENCODING 224
SWIDTH 870 0
DWIDTH 31 0
BBX 29 38 1 0
BITMAP
00000400
00000E00
00000E00
00000600
00000700
00000700
00000700
00000200
0001FFF8
0001FFF8
0003FFF8
0007C038
00078038
000F0038
000F0038
001E0038
001E0038
003E0038
003F8038
007FC038
007BF038
00F0FC38
00F07F38
01E01FF8
01E007F8
03C001F8
03C00078
07800038
07800038
0F000038
0E000038
1E000038
1C000038
3C000038
38000038
78000038
70000038
F0000038
ENDCHAR
STARTCHAR aacute
ENCODING 225
SWIDTH 870 0
DWIDTH 31 0
BBX 29 38 1 0
BITMAP
000000C0
000001C0
000003E0
000007C0
00000F80
00000F00
00000E00
00000400
0001FFF8
0001FFF8
0003FFF8
0007C038
00078038
000F0038
000F0038
001E0038
001E0038
003E0038
003F8038
007FC038
007BF038
00F0FC38
00F07F38
01E01FF8
01E007F8
03C001F8
03C00078
07800038
07800038
0F000038
0E000038
1E000038
1C000038
3C000038
38000038
78000038
70000038
F0000038
ENDCHAR
STARTCHAR acircumflex
ENCODING 226
SWIDTH 870 0
DWIDTH 31 0
BBX 29 39 1 0
BITMAP
00000200
00000700
00000F80
00001FC0
00003FE0
00007CF0
0000F878
00007030
00000000
0001FFF8
0001FFF8
0003FFF8
0007C038
00078038
000F0038
000F0038
001E0038
001E0038
003E0038
003F8038
007FC038
007BF038
00F0FC38
00F07F38
01E01FF8
01E007F8
03C001F8
03C00078
07800038
07800038
0F000038
0E000038
1E000038
1C000038
3C000038
38000038
78000038
70000038
F0000038
ENDCHAR
STARTCHAR atilde
ENCODING 227
SWIDTH 877 0
DWIDTH 32 0
BBX 29 34 1 0
BITMAP
3FFFFFF8
3FFFFFF8
3FFFFFF8
00000000
0001FFF8
0001FFF8
0003FFF8
0007C038
00078038
000F0038
000F0038
001E0038
001E0038
003E0038
003F8038
007FC038
007BF038
00F0FC38
00F07F38
01E01FF8
01E007F8
03C001F8
03C00078
07800038
07800038
0F000038
0E000038
1E000038
1C000038
3C000038
38000038
78000038
70000038
F0000038
ENDCHAR
STARTCHAR adieresis
ENCODING 228
SWIDTH 889 0
DWIDTH 32 0
BBX 30 34 1 0
BITMAP
00018018
0001C01C
0001C01C
00000000
0001FFF8
0001FFF8
0003FFF8
0007C038
00078038
000F0038
000F0038
001E0038
001E0038
003E0038
003F8038
007FC038
007BF038
00F0FC38
00F07F38
01E01FF8
01E007F8
03C001F8
03C00078
07800038
07800038
0F000038
0E000038
1E000038
1C000038
3C000038
38000038
78000038
70000038
F0000038
ENDCHAR
STARTCHAR aring
ENCODING 229
SWIDTH 870 0
DWIDTH 31 0
BBX 29 37 1 0
BITMAP
00000F00
00001F80
00001F80
00001F80
00001F80
00000F00
00000000
0001FFF8
0001FFF8
0003FFF8
0007C038
00078038
000F0038
000F0038
001E0038
001E0038
003E0038
003F8038
007FC038
007BF038
00F0FC38
00F07F38
01E01FF8
01E007F8
03C001F8
03C00078
07800038
07800038
0F000038
0E000038
1E000038
1C000038
3C000038
38000038
78000038
70000038
F0000038
ENDCHAR
STARTCHAR ae
ENCODING 230
SWIDTH 1617 0
DWIDTH 58 0
BBX 56 30 1 0
BITMAP
0001FFF80FFFFF
0001FFF83FFFFF
0003FFF8FFFFFF
0007C039FC0000
0007803BE00000
000F003FC00000
000F003F800000
001E003F000000
001E003E000000
003E003C000000
003F003C000000
007FC038000000
007BF038000000
00F0FC3FFFFFFF
00F07F3FFFFFFF
01E01FFFFFFFFF
01E007FFFFFFFE
03C001F8000000
03C00078000000
0780003C000000
0700003C000000
0F00003E000000
0E00003F000000
1E00003F800000
3C00003FC00000
3C00003BE00000
78000039FE0000
78000038FFFFFF
F00000383FFFFF
F000003807FFFF
ENDCHAR
STARTCHAR ccedilla
ENCODING 231
SWIDTH 912 0
DWIDTH 33 0
BBX 31 35 1 -5
BITMAP
001FFFFE
00FFFFFE
01FFFFFE
07F80000
0FC00000
0F000000
1E000000
3C000000
3C000000
78000000
70000000
70000000
F0000000
F0000000
F0000000
F0000000
F0000000
F0000000
70000000
70000000
78000000
3C000000
3C000000
1E000000
0F000000
07C00000
03F80000
01FFFFFE
007FFFFE
001FFFFC
00000E00
00000E00
00007E00
00007E00
00007E00
ENDCHAR
STARTCHAR egrave
ENCODING 232
SWIDTH 913 0
DWIDTH 33 0
BBX 31 38 1 0
BITMAP
00004000
0000E000
0000E000
00007000
00007000
00007000
00003000
00000000
001FFFFE
00FFFFFE
01FFFFFE
07F80000
0FC00000
0F000000
1E000000
3C000000
3C000000
78000000
70000000
70000000
F0000000
FFFFFFFC
FFFFFFFE
FFFFFFFE
FFFFFFFC
F0000000
70000000
70000000
78000000
38000000
3C000000
1E000000
0F000000
07C00000
03F80000
01FFFFFC
007FFFFE
001FFFFC
ENDCHAR
STARTCHAR eacute
ENCODING 233
SWIDTH 913 0
DWIDTH 33 0
BBX 31 38 1 0
BITMAP
00000600
00000F00
00001F00
00003E00
00007C00
0000F800
00007000
00000000
001FFFFE
00FFFFFE
01FFFFFE
07F80000
0FC00000
0F000000
1E000000
3C000000
3C000000
78000000
70000000
70000000
F0000000
FFFFFFFC
FFFFFFFE
FFFFFFFE
FFFFFFFC
F0000000
70000000
70000000
78000000
38000000
3C000000
1E000000
0F000000
07C00000
03F80000
01FFFFFC
007FFFFE
001FFFFC
ENDCHAR
STARTCHAR ecircumflex
ENCODING 234
SWIDTH 913 0
DWIDTH 33 0
BBX 31 39 1 0
BITMAP
00006000
0000F000
0001F800
0003FC00
0007FE00
000F9F00
000F0F00
000E0700
00000000
001FFFFE
00FFFFFE
01FFFFFE
07F80000
0FC00000
0F000000
1E000000
3C000000
3C000000
78000000
70000000
70000000
F0000000
FFFFFFFC
FFFFFFFE
FFFFFFFE
FFFFFFFC
F0000000
70000000
70000000
78000000
38000000
3C000000
1E000000
0F000000
07C00000
03F80000
01FFFFFC
007FFFFE
001FFFFC
ENDCHAR
STARTCHAR edieresis
ENCODING 235
SWIDTH 913 0
DWIDTH 33 0
BBX 31 34 1 0
BITMAP
00060060
000700F0
00070070
00000000
001FFFFE
00FFFFFE
01FFFFFE
07F80000
0FC00000
0F000000
1E000000
3C000000
3C000000
78000000
70000000
70000000
F0000000
FFFFFFFC
FFFFFFFE
FFFFFFFE
FFFFFFFC
F0000000
70000000
70000000
78000000
38000000
3C000000
1E000000
0F000000
07C00000
03F80000
01FFFFFC
007FFFFE
001FFFFC
ENDCHAR
STARTCHAR igrave
ENCODING 236
SWIDTH 199 0
DWIDTH 7 0
BBX 5 37 1 1
BITMAP
E0
E0
60
70
70
70
38
38
38
38
38
38
38
38
38
38
38
38
38
38
38
38
38
38
38
38
38
38
38
38
38
38
38
38
38
38
38
ENDCHAR
STARTCHAR iacute
ENCODING 237
SWIDTH 286 0
DWIDTH 10 0
BBX 8 37 1 1
BITMAP
06
0F
1F
3E
7C
F8
70
2E
0E
0E
0E
0E
0E
0E
0E
0E
0E
0E
0E
0E
0E
0E
0E
0E
0E
0E
0E
0E
0E
0E
0E
0E
0E
0E
0E
0E
0E
ENDCHAR
STARTCHAR icircumflex
ENCODING 238
SWIDTH 420 0
DWIDTH 15 0
BBX 13 38 1 1
BITMAP
0200
0700
0F80
1FC0
3FE0
7CF0
F878
7038
0380
0380
0380
0380
0380
0380
0380
0380
0380
0380
0380
0380
0380
0380
0380
0380
0380
0380
0380
0380
0380
0380
0380
0380
0380
0380
0380
0380
0380
0380
ENDCHAR
STARTCHAR idieresis
ENCODING 239
SWIDTH 485 0
DWIDTH 17 0
BBX 15 33 1 1
BITMAP
E00E
E00E
E00E
01C0
01C0
01C0
01C0
01C0
01C0
01C0
01C0
01C0
01C0
01C0
01C0
01C0
01C0
01C0
01C0
01C0
01C0
01C0
01C0
01C0
01C0
01C0
01C0
01C0
01C0
01C0
01C0
01C0
01C0
ENDCHAR
STARTCHAR eth
ENCODING 240
SWIDTH 801 0
DWIDTH 29 0
BBX 27 34 1 0
BITMAP
00007000
0000F000
0001F000
0001E000
1FFFC000
1FFFC000
1FFFF000
001FF800
003E7C00
007C1E00
00780F00
00700780
00300780
000003C0
000003C0
000001C0
000001C0
7FFFFFE0
FFFFFFE0
FFFFFFE0
FFFFFFC0
F00001C0
F00001C0
F00003C0
F0000380
F0000780
F0000F80
F0001F00
F0003E00
F000FC00
F007F800
FFFFF000
FFFFC000
FFFE0000
ENDCHAR
STARTCHAR ntilde
ENCODING 241
SWIDTH 906 0
DWIDTH 33 0
BBX 30 34 1 0
BITMAP
3FFFFFE0
3FFFFFE0
3FFFFFE0
007FFFFC
03FFFFFC
0FFFFFFC
1FE0001C
3F00001C
3C00001C
7800001C
7800001C
7000001C
F000001C
F000001C
F000001C
F000001C
F000001C
F000001C
F000001C
F000001C
F000001C
F000001C
0000001C
0000001C
0000001C
0000001C
0000001C
0000001C
0000001C
0000001C
0000001C
0000001C
0000001C
0000001C
ENDCHAR
STARTCHAR ograve
ENCODING 242
SWIDTH 912 0
DWIDTH 33 0
BBX 31 38 1 0
BITMAP
00018000
0001C000
0001C000
0001C000
0000C000
0000E000
0000E000
00004000
001FF000
00FFFC00
01FFFF00
07F01F80
0FC007C0
0F0001E0
1E0000F0
3C000078
3C000078
7800003C
7000003C
7003001C
F007C01C
F00FC01C
F00FE01E
F00FE01E
F00FC01C
7007C01C
7000001C
7000003C
78000038
3C000078
3C0000F0
1E0001F0
0F0003E0
07C00FC0
03F87F80
01FFFF00
007FFC00
000FE000
ENDCHAR
STARTCHAR oacute
ENCODING 243
SWIDTH 912 0
DWIDTH 33 0
BBX 31 38 1 0
BITMAP
00003000
00007800
0000F800
0001F000
0003E000
0007C000
00038000
00000000
001FF000
00FFFC00
01FFFF00
07F01F80
0FC007C0
0F0001E0
1E0000F0
3C000078
3C000078
7800003C
7000003C
7003001C
F007C01C
F00FC01C
F00FE01E
F00FE01E
F00FC01C
7007C01C
7000001C
7000003C
78000038
3C000078
3C0000F0
1E0001F0
0F0003E0
07C00FC0
03F87F80
01FFFF00
007FFC00
000FE000
ENDCHAR
STARTCHAR ocircumflex
ENCODING 244
SWIDTH 912 0
DWIDTH 33 0
BBX 31 39 1 0
BITMAP
00008000
0003C000
0007E000
000FF000
001FF800
003E7C00
003C3E00
00181C00
00000000
001FF000
00FFFC00
01FFFF00
07F01F80
0FC007C0
0F0001E0
1E0000F0
3C000078
3C000078
7800003C
7000003C
7003001C
F007C01C
F00FC01C
F00FE01E
F00FE01E
F00FC01C
7007C01C
7000001C
7000003C
78000038
3C000078
3C0000F0
1E0001F0
0F0003E0
07C00FC0
03F87F80
01FFFF00
007FFC00
000FE000
ENDCHAR
STARTCHAR otilde
ENCODING 245
SWIDTH 912 0
DWIDTH 33 0
BBX 31 34 1 0
BITMAP
3FFFFFF0
3FFFFFF0
3FFFFFF0
00000000
001FF000
00FFFC00
01FFFF00
07F01F80
0FC007C0
0F0001E0
1E0000F0
3C000078
3C000078
7800003C
7000003C
7003001C
F007C01C
F00FC01C
F00FE01E
F00FE01E
F00FC01C
7007C01C
7000001C
7000003C
78000038
3C000078
3C0000F0
1E0001F0
0F0003E0
07C00FC0
03F87F80
01FFFF00
007FFC00
000FE000
ENDCHAR
STARTCHAR odieresis
ENCODING 246
SWIDTH 912 0
DWIDTH 33 0
BBX 31 34 1 0
BITMAP
00700600
00700700
00700700
00000000
001FF000
00FFFC00
01FFFF00
07F01F80
0FC007C0
0F0001E0
1E0000F0
3C000078
3C000078
7800003C
7000003C
7003001C
F007C01C
F00FC01C
F00FE01E
F00FE01E
F00FC01C
7007C01C
7000001C
7000003C
78000038
3C000078
3C0000F0
1E0001F0
0F0003E0
07C00FC0
03F87F80
01FFFF00
007FFC00
000FE000
ENDCHAR
STARTCHAR divide
ENCODING 247
SWIDTH 913 0
DWIDTH 33 0
BBX 31 15 1 7
BITMAP
00038000
00038000
00038000
00000000
00000000
FFFFFFFC
FFFFFFFE
FFFFFFFE
7FFFFFFC
00000000
00000000
00000000
00038000
00038000
00018000
ENDCHAR
STARTCHAR oslash
ENCODING 248
SWIDTH 928 0
DWIDTH 33 0
BBX 30 30 2 0
BITMAP
003FF018
00FFFC3C
03FFFFF8
07F03FF0
0FC007E0
1F0007E0
3E000FF0
3C001FF0
78003E78
78007C38
7000F838
F001F03C
E003E01C
E007C01C
E00F801C
E01F001C
E03E001C
E07C003C
F0F8003C
71F00038
7BE00078
7FC00078
3F8000F0
1F0001E0
3F0003E0
7FC00FC0
7FF87F80
F1FFFE00
E07FFC00
401FE000
ENDCHAR
STARTCHAR ugrave
ENCODING 249
SWIDTH 827 0
DWIDTH 30 0
BBX 28 37 1 1
BITMAP
00300000
00700000
00300000
00380000
00380000
00380000
00180000
E00000E0
F00000F0
F00000F0
F00000F0
F00000F0
F00000F0
F00000F0
F00000F0
F00000F0
F00000F0
F00000E0
F00000E0
F00000E0
F00000E0
F00000E0
F00000E0
F00000E0
F00000E0
700000E0
700000E0
780000E0
380000E0
3C0000E0
1E0000E0
0F0000E0
0FC000E0
07F000E0
01FFFFE0
00FFFFE0
001FFFE0
ENDCHAR
STARTCHAR uacute
ENCODING 250
SWIDTH 827 0
DWIDTH 30 0
BBX 28 37 1 1
BITMAP
00060000
000F0000
001F0000
003E0000
007C0000
00780000
00700000
E00000E0
F00000F0
F00000F0
F00000F0
F00000F0
F00000F0
F00000F0
F00000F0
F00000F0
F00000F0
F00000E0
F00000E0
F00000E0
F00000E0
F00000E0
F00000E0
F00000E0
F00000E0
700000E0
700000E0
780000E0
380000E0
3C0000E0
1E0000E0
0F0000E0
0FC000E0
07F000E0
01FFFFE0
00FFFFE0
001FFFE0
ENDCHAR
STARTCHAR ucircumflex
ENCODING 251
SWIDTH 827 0
DWIDTH 30 0
BBX 28 37 1 1
BITMAP
00380000
007C0000
00FE0000
01FF0000
03E78000
03C3C000
0381C000
E10080E0
F00000F0
F00000F0
F00000F0
F00000F0
F00000F0
F00000F0
F00000F0
F00000F0
F00000F0
F00000E0
F00000E0
F00000E0
F00000E0
F00000E0
F00000E0
F00000E0
F00000E0
700000E0
700000E0
780000E0
380000E0
3C0000E0
1E0000E0
0F0000E0
0FC000E0
07F000E0
01FFFFE0
00FFFFE0
001FFFE0
ENDCHAR
STARTCHAR udieresis
ENCODING 252
SWIDTH 827 0
DWIDTH 30 0
BBX 28 33 1 1
BITMAP
07007000
07007000
07007000
E00000E0
F00000F0
F00000F0
F00000F0
F00000F0
F00000F0
F00000F0
F00000F0
F00000F0
F00000F0
F00000E0
F00000E0
F00000E0
F00000E0
F00000E0
F00000E0
F00000E0
F00000E0
700000E0
700000E0
780000E0
380000E0
3C0000E0
1E0000E0
0F0000E0
0FC000E0
07F000E0
01FFFFE0
00FFFFE0
001FFFE0
ENDCHAR
STARTCHAR yacute
ENCODING 253
SWIDTH 913 0
DWIDTH 33 0
BBX 31 37 1 1
BITMAP
00060000
000F0000
001F0000
003E0000
007C0000
00780000
00700000
F000001C
F000001E
F000001E
F000001E
F000001E
7000001E
7000001E
7800001E
3C00001E
3C00001E
1E00001E
0F80001E
07C0001E
03F8001E
01FFFFFE
007FFFFE
000FFFFE
0000001E
0000001E
0000001E
0000001E
0000001E
0000001E
0000001E
0000001E
0000001E
0000001E
0000001E
0000001E
0000001E
ENDCHAR
STARTCHAR thorn
ENCODING 254
SWIDTH 811 0
DWIDTH 29 0
BBX 27 39 1 -9
BITMAP
FF000000
FF000000
7F000000
3C000000
3C000000
3C000000
3C000000
3C000000
3C000000
3C000000
3C000000
3FFF0000
3FFFC000
3FFFF000
3C03F800
3C007E00
3C001E00
3C000F00
3C000780
3C000380
3C0003C0
3C0001C0
3C0001C0
3C0001E0
3FFFFFE0
3FFFFFE0
3FFFFFE0
3FFFFFE0
3C000000
3C000000
3C000000
3C000000
3C000000
3C000000
3C000000
3C000000
FF000000
FF000000
FF000000
ENDCHAR
STARTCHAR ydieresis
ENCODING 255
SWIDTH 913 0
DWIDTH 33 0
BBX 31 33 1 1
BITMAP
07007000
07007000
07007000
F000001C
F000001E
F000001E
F000001E
F000001E
7000001E
7000001E
7800001E
3C00001E
3C00001E
1E00001E
0F80001E
07C0001E
03F8001E
01FFFFFE
007FFFFE
000FFFFE
0000001E
0000001E
0000001E
0000001E
0000001E
0000001E
0000001E
0000001E
0000001E
0000001E
0000001E
0000001E
0000001E
ENDCHAR
STARTCHAR dotlessi
ENCODING 305
SWIDTH 166 0
DWIDTH 6 0
BBX 4 30 1 0
BITMAP
F0
F0
F0
F0
F0
F0
F0
F0
F0
F0
F0
F0
F0
F0
F0
F0
F0
F0
F0
F0
F0
F0
F0
F0
F0
F0
F0
F0
F0
E0
ENDCHAR
STARTCHAR Lslash
ENCODING 321
SWIDTH 903 0
DWIDTH 33 0
BBX 30 30 1 0
BITMAP
03800000
03800000
03800000
03800000
03800000
03800000
03800000
03800000
03800000
038C0000
03BC0000
03FE0000
03F80000
07F00000
0FC00000
3F800000
7F800000
FF800000
77800000
07800000
07800000
07800000
07800000
07800000
07800000
07800000
07800000
07FFFFFC
03FFFFFC
03FFFFFC
ENDCHAR
STARTCHAR lslash
ENCODING 322
SWIDTH 1060 0
DWIDTH 38 0
BBX 36 30 1 0
BITMAP
0380000000
0380000000
0380000000
0380000000
0380000000
0380000000
0380000000
0380000000
0380000000
038C000000
03BC000000
03FE000000
03F8000000
07F0000000
0FC0000000
3F80000000
7F80000000
FF80000000
73C0000000
03C0000000
01C0000000
01E0000000
00F0000000
00F8000000
007C000000
003F000000
001FE00000
0007FFFFF0
0003FFFFF0
00007FFFF0
ENDCHAR
STARTCHAR OE.dup2
ENCODING 338
SWIDTH 1508 0
DWIDTH 54 0
BBX 52 30 1 0
BITMAP
001FF01FFFFFF0
00FFFC1FFFFFF0
01FFFF1FFFFFF0
07F01F9E000000
0FC007DE000000
0F0001FE000000
1E0000FE000000
3C00007E000000
3800007E000000
7800003E000000
7000003E000000
7000001E000000
F000001E000000
F000001FFFF800
E000001FFFF800
F000001FFFF800
F000001FFFF000
7000001C000000
7000001C000000
7000003C000000
7800003C000000
3800007C000000
3C0000FC000000
1E0001FC000000
0F0003FC000000
07C00FDC000000
03F87F9C000000
01FFFF1FFFFFF0
007FFC1FFFFFF0
000FE01FFFFFF0
ENDCHAR
STARTCHAR oe.dup3
ENCODING 339
SWIDTH 1659 0
DWIDTH 60 0
BBX 57 30 1 0
BITMAP
001FF00003FFFF80
00FFFC001FFFFF80
01FFFF003FFFFF80
07F01F80FF000000
0FC007C1F8000000
0F0001E3E0000000
1E0000F3C0000000
3C00007F80000000
3800007F00000000
7800003F00000000
7000003E00000000
7003001E00000000
E007C01E00000000
E00FC01FFFFFFF80
E00FE01FFFFFFF80
E00FE01FFFFFFF80
E00FC01FFFFFFF80
6007C01E00000000
7000001E00000000
7000003E00000000
7800003F00000000
3800007F00000000
3C0000FF80000000
1E0001F3C0000000
0F0003E3E0000000
07C00FC1F8000000
03F87F80FF000000
01FFFF003FFFFF80
007FFC000FFFFF80
000FE00003FFFF80
ENDCHAR
STARTCHAR Scaron.dup4
ENCODING 352
SWIDTH 912 0
DWIDTH 33 0
BBX 31 39 1 0
BITMAP
00402000
00E0F000
00F1F000
00F9E000
007FC000
003F8000
001F0000
000E0000
00000000
FFFFFFF0
FFFFFFF0
FFFFFFE0
70000000
70000000
70000000
78000000
38000000
38000000
3C000000
1E000000
1F000000
0F800000
07FFF800
03FFFF00
00FFFF80
000FFFC0
000003E0
000000F0
00000078
00000078
00000038
0000003C
0000001C
0000001C
0000001C
0000001C
FFFFFFFC
FFFFFFFE
FFFFFFFC
ENDCHAR
STARTCHAR scaron.dup5
ENCODING 353
SWIDTH 912 0
DWIDTH 33 0
BBX 31 39 1 0
BITMAP
00402000
00E0F000
00F1F000
00F9E000
007FC000
003F8000
001F0000
000E0000
00000000
FFFFFFF0
FFFFFFF0
FFFFFFE0
70000000
70000000
70000000
78000000
38000000
38000000
3C000000
1E000000
1F000000
0F800000
07FFF800
03FFFF00
00FFFF80
000FFFC0
000003E0
000000F0
00000078
00000078
00000038
0000003C
0000001C
0000001C
0000001C
0000001C
FFFFFFFC
FFFFFFFE
FFFFFFFC
ENDCHAR
STARTCHAR Ydieresis.dup6
ENCODING 376
SWIDTH 701 0
DWIDTH 25 0
BBX 23 33 1 1
BITMAP
0E00E0
0E00E0
0E00E0
F0000E
F0001E
78001E
3C001C
1E001C
0F003C
070038
078038
03C078
01E078
00F070
007070
0078F0
003CE0
001EE0
000FE0
0007E0
0003C0
0003C0
0003C0
000380
000380
000780
000700
000700
000F00
000F00
000E00
000E00
001E00
ENDCHAR
STARTCHAR Zcaron
ENCODING 381
SWIDTH 915 0
DWIDTH 33 0
BBX 31 38 1 0
BITMAP
00703800
00787800
007CF000
003FE000
001FC000
000F8000
00078000
00000000
FFFFFFFE
FFFFFFFE
FFFFFFFE
0000001C
0000001C
0000001C
0000003C
00000038
00000078
00000078
000000F0
000001F0
000003E0
003FFFC0
01FFFF80
07FFFE00
0FFFE000
1F800000
1E000000
3C000000
3C000000
78000000
78000000
70000000
70000000
F0000000
F0000000
FFFFFFFE
FFFFFFFE
FFFFFFFE
ENDCHAR
STARTCHAR zcaron
ENCODING 382
SWIDTH 915 0
DWIDTH 33 0
BBX 31 39 1 0
BITMAP
00203000
00707800
0078F800
003DF000
001FE000
000FC000
00078000
00030000
00000000
FFFFFFFE
FFFFFFFE
FFFFFFFE
0000001C
0000001C
0000001C
0000003C
00000038
00000078
00000078
000000F0
000001F0
000003E0
003FFFC0
01FFFF80
07FFFE00
0FFFE000
1F800000
1E000000
3C000000
3C000000
78000000
78000000
70000000
70000000
F0000000
F0000000
FFFFFFFE
FFFFFFFE
FFFFFFFE
ENDCHAR
STARTCHAR florin.dup7
ENCODING 402
SWIDTH 762 0
DWIDTH 27 0
BBX 25 39 1 -9
BITMAP
01FFE000
01FFE000
01FFE000
01E00000
01E00000
01C00000
01C00000
01C00000
01C00000
01C00000
01C00000
01C00000
01C00000
FFFFFF80
FFFFFF80
FFFFFF80
7FFFFF00
01E00000
01E00000
01E00000
01E00000
01C00000
01C00000
01C00000
01C00000
01C00000
01C00000
01C00000
01C00000
01C00000
01C00000
01C00000
01C00000
01C00000
01C00000
01C00000
01C00000
01C00000
01C00000
ENDCHAR
STARTCHAR circumflex.dup8
ENCODING 710
SWIDTH 420 0
DWIDTH 15 0
BBX 13 8 1 31
BITMAP
0200
0700
0F80
1FC0
3FE0
7CF0
F878
7030
ENDCHAR
STARTCHAR tilde.dup9
ENCODING 732
SWIDTH 912 0
DWIDTH 33 0
BBX 31 3 1 31
BITMAP
FFFFFFFC
FFFFFFFE
FFFFFFFE
ENDCHAR
STARTCHAR mu.dup10
ENCODING 956
SWIDTH 774 0
DWIDTH 28 0
BBX 26 39 1 -9
BITMAP
700003C0
F00003C0
F00003C0
F00003C0
F00003C0
F00003C0
F00003C0
F00003C0
F00003C0
F00003C0
F00003C0
F00003C0
F00003C0
F00003C0
F00003C0
F00003C0
F00003C0
F00003C0
F00003C0
F00003C0
F00003C0
F00003C0
F00003C0
F00003C0
F00003C0
F00003C0
F00003C0
FFFFFFC0
FFFFFFC0
FFFFFF80
F0000000
F0000000
F0000000
F0000000
F0000000
F0000000
F0000000
F0000000
F0000000
ENDCHAR
STARTCHAR endash.dup11
ENCODING 8211
SWIDTH 899 0
DWIDTH 32 0
BBX 30 4 1 13
BITMAP
FFFFFFFC
FFFFFFFC
FFFFFFFC
7FFFFFF8
ENDCHAR
STARTCHAR emdash.dup12
ENCODING 8212
SWIDTH 1050 0
DWIDTH 38 0
BBX 36 4 1 13
BITMAP
FFFFFFFFE0
FFFFFFFFF0
FFFFFFFFF0
7FFFFFFFE0
ENDCHAR
STARTCHAR quoteleft.dup13
ENCODING 8216
SWIDTH 191 0
DWIDTH 7 0
BBX 5 7 1 23
BITMAP
E0
E0
70
70
70
30
38
ENDCHAR
STARTCHAR quoteright.dup14
ENCODING 8217
SWIDTH 157 0
DWIDTH 6 0
BBX 3 7 1 23
BITMAP
60
60
E0
E0
E0
E0
E0
ENDCHAR
STARTCHAR quotesinglbase.dup15
ENCODING 8218
SWIDTH 158 0
DWIDTH 6 0
BBX 3 7 1 -2
BITMAP
60
60
E0
E0
E0
E0
E0
ENDCHAR
STARTCHAR quotedblleft.dup16
ENCODING 8220
SWIDTH 268 0
DWIDTH 10 0
BBX 7 7 1 23
BITMAP
FC
FC
7C
7E
7E
36
3E
ENDCHAR
STARTCHAR quotedblright.dup17
ENCODING 8221
SWIDTH 232 0
DWIDTH 8 0
BBX 6 7 1 23
BITMAP
7C
7C
FC
FC
FC
F8
FC
ENDCHAR
STARTCHAR quotedblbase.dup18
ENCODING 8222
SWIDTH 232 0
DWIDTH 8 0
BBX 6 7 1 -2
BITMAP
6C
7C
FC
FC
FC
F8
FC
ENDCHAR
STARTCHAR dagger.dup19
ENCODING 8224
SWIDTH 538 0
DWIDTH 19 0
BBX 17 30 1 0
BITMAP
07F000
07F000
07F000
01C000
01C000
01C000
01C000
FFFF80
FFFF80
FFFF80
01C000
01C000
01C000
01C000
01C000
01C000
01C000
01C000
01C000
01C000
01C000
01C000
01C000
01C000
01C000
01C000
01C000
01C000
01C000
01C000
ENDCHAR
STARTCHAR daggerdbl.dup20
ENCODING 8225
SWIDTH 540 0
DWIDTH 19 0
BBX 17 30 1 0
BITMAP
07F000
07F000
07F000
01C000
01C000
01C000
01C000
FFFF80
FFFF80
FFFF80
01C000
01C000
01C000
FFFF80
FFFF80
FFFF80
01C000
01C000
01C000
01C000
01C000
01C000
01C000
01C000
01C000
01C000
01C000
01C000
01C000
01C000
ENDCHAR
STARTCHAR bullet.dup21
ENCODING 8226
SWIDTH 262 0
DWIDTH 9 0
BBX 7 7 1 12
BITMAP
38
7C
FE
FE
FE
7E
38
ENDCHAR
STARTCHAR ellipsis.dup22
ENCODING 8230
SWIDTH 484 0
DWIDTH 17 0
BBX 15 3 1 0
BITMAP
E38E
E38E
E38E
ENDCHAR
STARTCHAR perthousand.dup23
ENCODING 8240
SWIDTH 1188 0
DWIDTH 43 0
BBX 40 30 1 0
BITMAP
07C0001C00
0FF0003E00
1FF0007C00
1C3800F800
383801F000
383803E000
183807C000
1C780F8000
1FF01F0000
0FE03E0000
03C07C0000
0000F80000
0001F00000
0003E00000
0007C00000
000F800000
001F000000
003E000000
007C000000
00F807C078
01F01FE1FE
03E01FF3FE
07C03C7387
0F80383F83
1F00383F03
3E00383F07
7C00387387
F8001FF3FF
70000FE1FE
200007C07C
ENDCHAR
STARTCHAR guilsinglleft.dup24
ENCODING 8249
SWIDTH 313 0
DWIDTH 11 0
BBX 9 14 1 8
BITMAP
0380
0780
0F00
1E00
3C00
7800
F000
7000
7800
1C00
0E00
0700
0380
0100
ENDCHAR
STARTCHAR guilsinglright.dup25
ENCODING 8250
SWIDTH 313 0
DWIDTH 11 0
BBX 9 14 1 8
BITMAP
6000
7000
7800
3C00
1E00
0F00
0780
0780
0F00
1E00
3C00
7800
F000
6000
ENDCHAR
STARTCHAR currency.dup26
ENCODING 8364
SWIDTH 1021 0
DWIDTH 37 0
BBX 34 30 1 0
BITMAP
00001FFFC0
0000FFFFC0
0001FFFFC0
0003F80000
0007C00000
000F800000
001E000000
003C000000
003C000000
0078000000
7FFFFE0000
7FFFFE0000
0070000000
00F0000000
00F0000000
00F0000000
FFFFFE0000
FFFFFE0000
7FFFFC0000
0078000000
0078000000
003C000000
003C000000
001E000000
000F800000
0007C00000
0003FC0000
0001FFFFC0
00007FFFC0
00000FFFC0
ENDCHAR
STARTCHAR trademark.dup27
ENCODING 8482
SWIDTH 1275 0
DWIDTH 46 0
BBX 44 19 1 11
BITMAP
FFFFFF01C0F0
FFFFFFC1E0F0
FFFFFFE1F0F0
007007F1F8F0
00700779FCF0
0070073DDEF0
0070071FCFF0
0070070FC7F0
00700707C1F0
00700701C0F0
00700701C0F0
00700701C0F0
00700701C0F0
00700701C0E0
00700701C0E0
00700701C0E0
00700701C0E0
00700701C0E0
00700701C060
ENDCHAR
STARTCHAR periodcentered.dup28
ENCODING 8729
SWIDTH 158 0
DWIDTH 6 0
BBX 3 3 1 14
BITMAP
60
E0
E0
ENDCHAR
STARTCHAR greaterequal
ENCODING 8805
SWIDTH 1224 0
DWIDTH 44 0
BBX 42 30 1 0
BITMAP
FFFF831FFC00
FFFF837FFC00
E1C383F00000
E1C383E00000
01C383C00000
01C383800000
01C383800000
01DFFFFFFC00
01DFFFFFFC00
01C383800000
01C383800000
01C383800000
01C383C00C00
01C383F80C00
0FE7CFFFFFC0
0FE7DFFFFFC0
06083C0E01C0
061C700E0180
063C600E0380
0638E00E0700
0630C00E1F00
0600FFFFFFC0
0600FFFFFFC0
0600C00E01C0
0600C00E01C0
0600C00E01C0
0600C00E01C0
0600C00E01C0
07FFC00FFFC0
07FFC00FFFC0
ENDCHAR
STARTCHAR fi
ENCODING 64257
SWIDTH 874 0
DWIDTH 31 0
BBX 29 30 1 0
BITMAP
003FFFF8
00FFFFF8
01FFFFF8
07F00038
0FC00038
0F000038
1E000038
3C000038
3C000038
78000038
70000038
70000038
70000038
FFFFFF38
FFFFFF38
FFFFFF38
FFFFFE38
F0000038
F0000038
F0000038
F0000038
F0000038
F0000038
F0000038
F0000038
F0000038
F0000038
F0000038
F0000038
F0000038
ENDCHAR
STARTCHAR fl
ENCODING 64258
SWIDTH 1593 0
DWIDTH 57 0
BBX 55 30 1 0
BITMAP
003FFFF8000000
00FFFFF8000000
01FFFFF8000000
07F00078000000
0FC00078000000
0F000078000000
1E000078000000
3C000078000000
3C000078000000
78000078000000
70000078000000
70000070000000
70000070000000
FFFFFF70000000
FFFFFF70000000
FFFFFF70000000
FFFFFE70000000
F0000070000000
F0000078000000
F0000038000000
F000003C000000
F000003C000000
F000001E000000
F000000F000000
F000000F800000
F0000007E00000
F0000003FC0000
F0000000FFFFFE
F00000003FFFFE
F00000000FFFFE
ENDCHAR
STARTCHAR .notdef
ENCODING -1
SWIDTH 500 0
DWIDTH 18 0
BBX 1 1 0 0
BITMAP
00
ENDCHAR
STARTCHAR .null
ENCODING -1
SWIDTH 0 0
DWIDTH 0 0
BBX 1 1 0 0
BITMAP
00
ENDCHAR
STARTCHAR nonmarkingreturn
ENCODING -1
SWIDTH 500 0
DWIDTH 18 0
BBX 1 1 0 0
BITMAP
00
ENDCHAR
ENDFONT
